0
SECTION
2
HEADER
9
$INSUNITS
70
4
9
$ACADVER
1
AC1014
9
$HANDSEED
5
FFFF
0
ENDSEC
0
SECTION
2
TABLES
0
TABLE
2
VPORT
5
8
100
AcDbSymbolTable
0
ENDTAB
0
TABLE
2
LTYPE
5
5
100
AcDbSymbolTable
0
LTYPE
5
14
100
AcDbSymbolTableRecord
100
AcDbLinetypeTableRecord
2
BYBLOCK
70
0
0
LTYPE
5
15
100
AcDbSymbolTableRecord
100
AcDbLinetypeTableRecord
2
BYLAYER
70
0
0
ENDTAB
0
TABLE
2
LAYER
5
2
100
AcDbSymbolTable
70
2
0
LAYER
5
50
100
AcDbSymbolTableRecord
100
AcDbLayerTableRecord
2
0
70
0
6
CONTINUOUS
0
ENDTAB
0
TABLE
2
STYLE
5
3
100
AcDbSymbolTable
70
1
0
STYLE
5
11
100
AcDbSymbolTableRecord
100
AcDbTextStyleTableRecord
2
STANDARD
70
0
0
ENDTAB
0
TABLE
2
VIEW
5
6
100
AcDbSymbolTable
70
0
0
ENDTAB
0
TABLE
2
UCS
5
7
100
AcDbSymbolTable
70
0
0
ENDTAB
0
TABLE
2
APPID
5
9
100
AcDbSymbolTable
70
2
0
APPID
5
12
100
AcDbSymbolTableRecord
100
AcDbRegAppTableRecord
2
ACAD
70
0
0
ENDTAB
0
TABLE
2
DIMSTYLE
5
A
100
AcDbSymbolTable
70
1
0
ENDTAB
0
TABLE
2
BLOCK_RECORD
5
1
100
AcDbSymbolTable
70
1
0
BLOCK_RECORD
5
1F
100
AcDbSymbolTableRecord
100
AcDbBlockTableRecord
2
*MODEL_SPACE
0
BLOCK_RECORD
5
1B
100
AcDbSymbolTableRecord
100
AcDbBlockTableRecord
2
*PAPER_SPACE
0
ENDTAB
0
ENDSEC
0
SECTION
2
BLOCKS
0
BLOCK
5
20
100
AcDbEntity
100
AcDbBlockBegin
2
*MODEL_SPACE
0
ENDBLK
5
21
100
AcDbEntity
100
AcDbBlockEnd
0
BLOCK
5
1C
100
AcDbEntity
100
AcDbBlockBegin
2
*PAPER_SPACE
0
ENDBLK
5
1D
100
AcDbEntity
100
AcDbBlockEnd
0
ENDSEC
0
SECTION
2
ENTITIES
0
LWPOLYLINE
5
100
100
AcDbEntity
8
0
100
AcDbPolyline
90
8
70
1
43
0.0
10
73.674999999999983
20
67.068750000000009
10
59.674999999999997
20
67.068750000000009
10
59.674999999999997
20
68.187500000000014
10
58.67499999999999
20
68.187500000000014
10
58.67499999999999
20
75.187500000000014
10
59.674999999999997
20
75.187500000000014
10
59.674999999999983
20
81.068750000000023
10
73.674999999999983
20
81.068750000000023
0
LWPOLYLINE
5
101
100
AcDbEntity
8
0
100
AcDbPolyline
90
4
70
1
43
0.0
10
40.624999999999993
20
50.112500000000011
10
54.624999999999993
20
50.112500000000011
10
54.624999999999993
20
36.112500000000004
10
40.624999999999993
20
36.112500000000004
0
LWPOLYLINE
5
102
100
AcDbEntity
8
0
100
AcDbPolyline
90
4
70
1
43
0.0
10
16.524999999999995
20
16.775000000000002
10
16.524999999999999
20
2.775000000000003
10
2.5249999999999995
20
2.7750000000000008
10
2.5249999999999972
20
16.774999999999999
0
LWPOLYLINE
5
103
100
AcDbEntity
8
0
100
AcDbPolyline
90
4
70
1
43
0.0
10
21.574999999999992
20
64.687500000000014
10
21.574999999999989
20
78.6875
10
35.574999999999989
20
78.687500000000014
10
35.574999999999996
20
64.687500000000014
0
LWPOLYLINE
5
104
100
AcDbEntity
8
0
100
AcDbPolyline
90
4
70
1
43
0.0
10
40.624999999999986
20
93.262500000000017
10
40.624999999999986
20
107.26250000000002
10
54.624999999999986
20
107.26250000000005
10
54.624999999999986
20
93.262500000000031
0
LWPOLYLINE
5
105
100
AcDbEntity
8
0
100
AcDbPolyline
90
4
70
1
43
0.0
10
2.5249999999999808
20
117.07500000000002
10
2.5249999999999777
20
131.07499999999999
10
16.524999999999977
20
131.07499999999999
10
16.524999999999981
20
117.07500000000002
0
LWPOLYLINE
5
106
100
AcDbEntity
8
0
100
AcDbPolyline
90
4
70
1
43
0.0
10
21.574999999999974
20
154.88749999999999
10
35.574999999999982
20
154.88749999999999
10
35.574999999999982
20
140.88749999999999
10
21.574999999999982
20
140.88749999999999
0
LWPOLYLINE
5
107
100
AcDbEntity
8
0
100
AcDbPolyline
90
4
70
1
43
0.0
10
54.624999999999979
20
183.46250000000001
10
54.624999999999979
20
169.46249999999998
10
40.624999999999972
20
169.46249999999998
10
40.624999999999972
20
183.46250000000001
0
LWPOLYLINE
5
108
100
AcDbEntity
8
0
100
AcDbPolyline
90
4
70
1
43
0.0
10
21.574999999999971
20
198.03750000000002
10
21.574999999999967
20
212.03749999999999
10
35.574999999999967
20
212.03749999999999
10
35.574999999999974
20
198.03750000000002
0
LWPOLYLINE
5
109
100
AcDbEntity
8
0
100
AcDbPolyline
90
4
70
1
43
0.0
10
40.624999999999957
20
240.61250000000001
10
54.624999999999957
20
240.61250000000001
10
54.624999999999972
20
226.61250000000001
10
40.624999999999964
20
226.61250000000001
0
LWPOLYLINE
5
110
100
AcDbEntity
8
0
100
AcDbPolyline
90
4
70
1
43
0.0
10
21.57499999999996
20
235.85000000000002
10
35.574999999999967
20
235.85000000000002
10
35.574999999999967
20
221.84999999999999
10
21.574999999999967
20
221.84999999999999
0
LWPOLYLINE
5
111
100
AcDbEntity
8
0
100
AcDbPolyline
90
4
70
1
43
0.0
10
40.624999999999964
20
188.51249999999996
10
40.624999999999964
20
202.51249999999999
10
54.624999999999972
20
202.51249999999999
10
54.624999999999972
20
188.51249999999996
0
LWPOLYLINE
5
112
100
AcDbEntity
8
0
100
AcDbPolyline
90
4
70
1
43
0.0
10
21.574999999999971
20
178.98750000000001
10
21.574999999999971
20
192.98750000000001
10
35.574999999999974
20
192.98750000000001
10
35.574999999999974
20
178.98750000000001
0
LWPOLYLINE
5
113
100
AcDbEntity
8
0
100
AcDbPolyline
90
4
70
1
43
0.0
10
54.624999999999979
20
164.41249999999999
10
54.624999999999979
20
150.41250000000002
10
40.624999999999972
20
150.41249999999999
10
40.624999999999972
20
164.41249999999999
0
LWPOLYLINE
5
114
100
AcDbEntity
8
0
100
AcDbPolyline
90
4
70
1
43
0.0
10
35.574999999999982
20
121.83750000000002
10
21.574999999999982
20
121.83750000000002
10
21.574999999999982
20
135.83750000000003
10
35.574999999999982
20
135.83750000000003
0
LWPOLYLINE
5
115
100
AcDbEntity
8
0
100
AcDbPolyline
90
4
70
1
43
0.0
10
2.5249999999999839
20
98.02500000000002
10
2.5249999999999808
20
112.02500000000002
10
16.524999999999981
20
112.02500000000002
10
16.524999999999984
20
98.02500000000002
0
LWPOLYLINE
5
116
100
AcDbEntity
8
0
100
AcDbPolyline
90
4
70
1
43
0.0
10
40.624999999999993
20
74.21250000000002
10
40.624999999999986
20
88.212500000000006
10
54.624999999999986
20
88.212500000000034
10
54.624999999999993
20
74.21250000000002
0
LWPOLYLINE
5
117
100
AcDbEntity
8
0
100
AcDbPolyline
90
4
70
1
43
0.0
10
2.5249999999999968
20
21.825000000000003
10
2.5249999999999932
20
35.825000000000003
10
16.524999999999991
20
35.82500000000001
10
16.524999999999995
20
21.825000000000006
0
LWPOLYLINE
5
118
100
AcDbEntity
8
0
100
AcDbPolyline
90
4
70
1
43
0.0
10
54.625
20
23.918750000000006
10
54.625
20
9.9187500000000064
10
40.625
20
9.9187500000000064
10
40.625
20
23.918750000000006
0
LWPOLYLINE
5
119
100
AcDbEntity
8
0
100
AcDbPolyline
90
12
70
1
43
0.0
10
58.674999999999997
20
18.005750000000006
10
59.675000000000004
20
18.005750000000006
10
59.674999999999997
20
34.881750000000004
10
58.67499999999999
20
34.881750000000004
10
58.67499999999999
20
41.881750000000011
10
59.674999999999997
20
41.881750000000011
10
59.674999999999997
20
47.731250000000017
10
73.674999999999983
20
47.731250000000017
10
73.674999999999997
20
7.5375000000000103
10
59.675000000000004
20
7.5375000000000103
10
59.675000000000004
20
11.00575000000001
10
58.674999999999997
20
11.00575000000001
0
LWPOLYLINE
5
120
100
AcDbEntity
8
0
100
AcDbPolyline
90
12
70
1
43
0.0
10
58.674999999999983
20
132.33750000000003
10
59.674999999999983
20
132.33750000000003
10
59.674999999999976
20
154.88750000000002
10
73.674999999999969
20
154.88750000000002
10
73.674999999999983
20
83.737500000000026
10
59.674999999999983
20
83.737500000000026
10
59.674999999999983
20
106.28750000000002
10
58.674999999999983
20
106.28750000000002
10
58.674999999999983
20
113.28750000000002
10
59.674999999999983
20
113.28750000000002
10
59.674999999999983
20
125.33750000000003
10
58.674999999999983
20
125.33750000000003
0
LWPOLYLINE
5
121
100
AcDbEntity
8
0
100
AcDbPolyline
90
4
70
1
43
0.0
10
35.574999999999996
20
45.637500000000017
10
21.574999999999992
20
45.637500000000003
10
21.574999999999992
20
59.63750000000001
10
35.574999999999996
20
59.637500000000017
0
LWPOLYLINE
5
122
100
AcDbEntity
8
0
100
AcDbPolyline
90
4
70
1
43
0.0
10
21.575000000000003
20
5.1562500000000044
10
21.574999999999996
20
19.156250000000004
10
35.575000000000003
20
19.156250000000007
10
35.575000000000003
20
5.1562500000000071
0
LWPOLYLINE
5
123
100
AcDbEntity
8
0
100
AcDbPolyline
90
4
70
1
43
0.0
10
2.524999999999987
20
73.924999999999997
10
16.524999999999984
20
73.924999999999997
10
16.524999999999991
20
59.925000000000004
10
2.5249999999999906
20
59.925000000000004
0
LWPOLYLINE
5
124
100
AcDbEntity
8
0
100
AcDbPolyline
90
4
70
1
43
0.0
10
21.574999999999989
20
83.737500000000011
10
21.574999999999985
20
97.737500000000011
10
35.574999999999989
20
97.737500000000011
10
35.574999999999989
20
83.737500000000011
0
LWPOLYLINE
5
125
100
AcDbEntity
8
0
100
AcDbPolyline
90
4
70
1
43
0.0
10
40.624999999999986
20
126.31250000000001
10
54.624999999999986
20
126.31250000000003
10
54.624999999999986
20
112.31250000000003
10
40.624999999999986
20
112.31250000000001
0
LWPOLYLINE
5
126
100
AcDbEntity
8
0
100
AcDbPolyline
90
4
70
1
43
0.0
10
2.5249999999999773
20
136.125
10
2.5249999999999746
20
150.125
10
16.524999999999974
20
150.125
10
16.524999999999977
20
136.125
0
LWPOLYLINE
5
127
100
AcDbEntity
8
0
100
AcDbPolyline
90
4
70
1
43
0.0
10
21.574999999999971
20
173.9375
10
35.574999999999974
20
173.9375
10
35.574999999999982
20
159.9375
10
21.574999999999974
20
159.9375
0
LWPOLYLINE
5
128
100
AcDbEntity
8
0
100
AcDbPolyline
90
4
70
1
43
0.0
10
2.5249999999999679
20
193.27500000000001
10
2.5249999999999648
20
207.27499999999998
10
16.524999999999963
20
207.27499999999998
10
16.524999999999967
20
193.27500000000001
0
LWPOLYLINE
5
129
100
AcDbEntity
8
0
100
AcDbPolyline
90
12
70
1
43
0.0
10
59.674999999999969
20
192.01249999999999
10
58.674999999999962
20
192.01249999999999
10
58.674999999999962
20
199.01249999999999
10
59.674999999999969
20
199.01249999999999
10
59.674999999999969
20
230.11250000000001
10
58.674999999999962
20
230.11250000000001
10
58.674999999999962
20
237.11250000000001
10
59.674999999999969
20
237.11250000000001
10
59.674999999999955
20
240.61250000000001
10
73.674999999999955
20
240.61250000000001
10
73.674999999999955
20
188.51249999999996
10
59.674999999999969
20
188.51249999999996
0
LWPOLYLINE
5
130
100
AcDbEntity
8
0
100
AcDbPolyline
90
4
70
1
43
0.0
10
16.524999999999963
20
219.46875
10
2.5249999999999639
20
219.46875
10
2.5249999999999595
20
233.46875
10
16.524999999999959
20
233.46875
0
LWPOLYLINE
5
131
100
AcDbEntity
8
0
100
AcDbPolyline
90
4
70
1
43
0.0
10
54.624999999999972
20
207.5625
10
40.624999999999964
20
207.5625
10
40.624999999999964
20
221.5625
10
54.624999999999972
20
221.5625
0
LWPOLYLINE
5
132
100
AcDbEntity
8
0
100
AcDbPolyline
90
4
70
1
43
0.0
10
2.524999999999971
20
174.22499999999999
10
2.5249999999999684
20
188.22499999999997
10
16.524999999999967
20
188.22499999999997
10
16.52499999999997
20
174.22499999999999
0
LWPOLYLINE
5
133
100
AcDbEntity
8
0
100
AcDbPolyline
90
4
70
1
43
0.0
10
2.5249999999999746
20
155.17500000000001
10
2.524999999999971
20
169.17500000000001
10
16.52499999999997
20
169.17500000000001
10
16.52499999999997
20
155.17500000000001
0
LWPOLYLINE
5
134
100
AcDbEntity
8
0
100
AcDbPolyline
90
4
70
1
43
0.0
10
40.624999999999986
20
131.36250000000001
10
40.624999999999972
20
145.36250000000001
10
54.624999999999979
20
145.36250000000004
10
54.624999999999986
20
131.36250000000004
0
LWPOLYLINE
5
135
100
AcDbEntity
8
0
100
AcDbPolyline
90
4
70
1
43
0.0
10
21.574999999999985
20
102.78750000000001
10
21.574999999999985
20
116.78750000000001
10
35.574999999999989
20
116.78750000000001
10
35.574999999999989
20
102.78750000000001
0
LWPOLYLINE
5
136
100
AcDbEntity
8
0
100
AcDbPolyline
90
4
70
1
43
0.0
10
2.5249999999999839
20
92.974999999999994
10
16.524999999999984
20
92.974999999999994
10
16.524999999999984
20
78.974999999999994
10
2.5249999999999861
20
78.974999999999994
0
LWPOLYLINE
5
137
100
AcDbEntity
8
0
100
AcDbPolyline
90
4
70
1
43
0.0
10
16.524999999999991
20
40.875
10
2.5249999999999928
20
40.875
10
2.5249999999999906
20
54.875000000000007
10
16.524999999999991
20
54.875000000000007
0
LWPOLYLINE
5
138
100
AcDbEntity
8
0
100
AcDbPolyline
90
4
70
1
43
0.0
10
21.574999999999996
20
26.587500000000006
10
21.574999999999992
20
40.587500000000006
10
35.574999999999996
20
40.58750000000002
10
35.575000000000003
20
26.587500000000006
0
LWPOLYLINE
5
139
100
AcDbEntity
8
0
100
AcDbPolyline
90
4
70
1
43
0.0
10
40.624999999999993
20
55.162500000000023
10
40.624999999999993
20
69.162500000000009
10
54.624999999999993
20
69.162500000000009
10
54.624999999999993
20
55.162500000000023
0
LWPOLYLINE
5
140
100
AcDbEntity
8
0
100
AcDbPolyline
90
8
70
1
43
0.0
10
58.674999999999969
20
170.4375
10
59.674999999999976
20
170.4375
10
59.674999999999976
20
171.55625000000001
10
73.674999999999969
20
171.55625000000001
10
73.674999999999969
20
157.55625000000003
10
59.674999999999976
20
157.55625000000003
10
59.674999999999976
20
163.4375
10
58.674999999999969
20
163.4375
0
LWPOLYLINE
5
141
100
AcDbEntity
8
0
100
AcDbPolyline
90
33
70
1
43
0.0
10
-1.0443547078206086
20
222.8889614890071
42
2.9736771828064925e-05
10
-1.0446611643635404
20
222.88887590590107
42
-0.19572211633001119
10
-7.1054273576010019e-14
20
220.32237193946554
10
-1.6375789613221059e-14
20
23.065128060534583
42
-0.19891236737965626
10
-1.076382579139441
20
20.466510639674027
10
-5.2165106396740413
20
16.326382579139427
42
0.19891236737965931
10
-6.000000000000032
20
14.434871939465417
10
-6.000000000000032
20
7.065128060534569
42
0.19891236737965803
10
-5.2165106396740413
20
5.173617420860559
10
-1.0763825791394588
20
1.0334893603259587
42
0.19891236737965554
10
0.81512806053455122
20
0.24999999999998579
10
75.384871939465441
20
0.25000000000002132
42
0.19891236737966048
10
77.276382579139451
20
1.033489360325994
10
81.416510639674016
20
5.173617420860559
42
0.19891236737965695
10
82.199999999999989
20
7.065128060534569
10
82.199999999999989
20
14.434871939465452
42
0.19891236737965942
10
81.416510639673987
20
16.326382579139462
10
77.276382579139437
20
20.466510639673977
42
-0.19891236737965731
10
76.199999999999974
20
23.065128060534548
10
76.199999999999903
20
220.32237193946557
42
-0.19891236737965731
10
77.27638257913938
20
222.92098936032616
10
81.416510639673945
20
227.06111742086065
42
0.19891236737965801
10
82.199999999999918
20
228.95262806053466
10
82.19999999999996
20
236.32237193946554
42
0.19891236737966769
10
81.416510639673945
20
238.21388257913952
10
77.276382579139309
20
242.35401063967416
42
0.19891236737964235
10
75.38487193946537
20
243.1375000000001
10
0.81512806053444464
20
243.13750000000005
42
0.19891236737964149
10
-1.0763825791395827
20
242.35401063967404
10
-5.2165106396741123
20
238.21388257913955
42
0.19891236737966617
10
-6.0000000000000853
20
236.32237193946551
10
-6.0000000000000853
20
228.95262806053464
42
0.19891236737965332
10
-5.2165106396740937
20
227.06111742086063
0
CIRCLE
5
142
100
AcDbEntity
8
0
100
AcDbCircle
10
79.449999999999932
20
232.63762806053464
30
0
40
1.25
210
0
220
0
230
1
0
CIRCLE
5
143
100
AcDbEntity
8
0
100
AcDbCircle
10
-3.2500000000000817
20
232.63737193946551
30
0
40
1.25
210
0
220
0
230
1
0
CIRCLE
5
144
100
AcDbEntity
8
0
100
AcDbCircle
10
-3.2500000000000284
20
10.749871939465407
30
0
40
1.25
210
0
220
0
230
1
0
CIRCLE
5
145
100
AcDbEntity
8
0
100
AcDbCircle
10
79.450000000000003
20
10.750128060534578
30
0
40
1.25
210
0
220
0
230
1
0
ENDSEC
0
SECTION
2
OBJECTS
0
DICTIONARY
5
C
100
AcDbDictionary
3
ACAD_GROUP
350
D
3
ACAD_MLINESTYLE
350
17
0
DICTIONARY
5
D
100
AcDbDictionary
0
DICTIONARY
5
1A
330
C
100
AcDbDictionary
0
DICTIONARY
5
17
100
AcDbDictionary
0
ENDSEC
0
EOF
