M48
; DRILL file {KiCad (6.0.10)} date Tue Feb 21 15:14:56 2023
; FORMAT={-:-/ absolute / inch / decimal}
; #@! TF.CreationDate,2023-02-21T15:14:56-06:00
; #@! TF.GenerationSoftware,Kicad,Pcbnew,(6.0.10)
; #@! TF.FileFunction,NonPlated,1,2,NPTH
FMAT,2
INCH
; #@! TA.AperFunction,NonPlated,NPTH,ComponentDrill
T1C0.0689
; #@! TA.AperFunction,NonPlated,NPTH,ComponentDrill
T2C0.1570
%
G90
G05
T1
X1.175Y-2.0625
X1.2688Y-2.8125
X1.3625Y-4.3125
X1.4563Y-3.5625
X1.575Y-2.0625
X1.6687Y-2.8125
X1.7625Y-4.3125
X1.8313Y-4.3125
X1.8562Y-3.5625
X1.925Y-2.0625
X2.1125Y-2.8125
X2.2312Y-4.3125
X2.325Y-2.0625
X2.3937Y-4.3125
X2.4875Y-3.5625
X2.5125Y-2.8125
X2.675Y-2.0625
X2.7937Y-4.3125
X2.8625Y-2.8125
X2.8875Y-3.5625
X3.075Y-2.0625
X3.2375Y-3.5625
X3.2625Y-2.8125
X3.425Y-2.0625
X3.6125Y-2.8125
X3.6375Y-3.5625
X3.7062Y-4.3125
X3.825Y-2.0625
X3.9875Y-3.5625
X4.0125Y-2.8125
X4.1063Y-4.3125
X4.175Y-2.0625
X4.3625Y-2.8125
X4.3625Y-4.3125
X4.3875Y-3.5625
X4.575Y-2.0625
X4.7375Y-3.5625
X4.7625Y-2.8125
X4.7625Y-4.3125
X4.8312Y-4.3125
X4.925Y-2.0625
X5.1125Y-2.8125
X5.1375Y-3.5625
X5.2313Y-4.3125
X5.325Y-2.0625
X5.4875Y-3.5625
X5.4875Y-4.3125
X5.5125Y-2.8125
X5.675Y-2.0625
X5.8625Y-2.8125
X5.8875Y-3.5625
X5.8875Y-4.3125
X6.075Y-2.0625
X6.1437Y-4.3125
X6.2375Y-3.5625
X6.2625Y-2.8125
X6.425Y-2.0625
X6.5438Y-4.3125
X6.6125Y-2.8125
X6.6125Y-4.3125
X6.6375Y-3.5625
X6.825Y-2.0625
X6.9875Y-3.5625
X7.0125Y-2.8125
X7.0125Y-4.3125
X7.175Y-2.0625
X7.2687Y-4.3125
X7.3625Y-2.8125
X7.3875Y-3.5625
X7.575Y-2.0625
X7.6688Y-4.3125
X7.7375Y-3.5625
X7.7625Y-2.8125
X7.925Y-2.0625
X8.1125Y-2.8125
X8.1375Y-3.5625
X8.325Y-2.0625
X8.4875Y-3.5625
X8.4875Y-4.3125
X8.5125Y-2.8125
X8.675Y-2.0625
X8.675Y-4.3125
X8.8625Y-2.8125
X8.8875Y-3.5625
X8.8875Y-4.3125
X9.075Y-4.3125
X9.2375Y-3.5625
X9.2375Y-4.3125
X9.2625Y-2.8125
X9.6375Y-3.5625
X9.6375Y-4.3125
X9.8Y-2.8125
X9.8Y-4.3125
X9.9875Y-3.5625
X9.9875Y-4.3125
X10.1062Y-2.0625
X10.2Y-2.8125
X10.2Y-4.3125
X10.3875Y-3.5625
X10.3875Y-4.3125
T2
X1.375Y-2.0625
X1.4688Y-2.8125
X1.5625Y-3.9875
X1.5625Y-4.3125
X1.6562Y-3.5625
X2.0312Y-4.3125
X2.125Y-2.0625
X2.3125Y-2.8125
X2.5Y-3.9875
X2.5938Y-4.3125
X2.6875Y-3.5625
X2.875Y-2.0625
X3.0625Y-2.8125
X3.4375Y-3.5625
X3.625Y-2.0625
X3.8125Y-2.8125
X3.8125Y-3.9875
X3.9062Y-4.3125
X4.1875Y-3.5625
X4.375Y-2.0625
X4.5625Y-2.8125
X4.5625Y-4.3125
X4.9375Y-3.5625
X5.0312Y-4.3125
X5.125Y-2.0625
X5.3125Y-2.8125
X5.3125Y-3.9875
X5.6875Y-3.5625
X5.6875Y-4.3125
X5.875Y-2.0625
X6.0625Y-2.8125
X6.0625Y-3.9875
X6.3438Y-4.3125
X6.4375Y-3.5625
X6.625Y-2.0625
X6.8125Y-2.8125
X6.8125Y-4.3125
X7.1875Y-3.5625
X7.375Y-2.0625
X7.4688Y-4.3125
X7.5625Y-2.8125
X7.5625Y-3.9875
X7.9375Y-3.5625
X8.125Y-2.0625
X8.3125Y-2.8125
X8.6875Y-3.5625
X8.6875Y-3.9875
X8.6875Y-4.3125
X8.875Y-2.0625
X8.875Y-4.3125
X9.0625Y-2.8125
X9.4375Y-3.5625
X9.4375Y-4.3125
X9.9062Y-2.0625
X10.0Y-2.8125
X10.0Y-4.3125
X10.1875Y-3.5625
X10.1875Y-3.9875
X10.1875Y-4.3125
T0
M30
