%TF.GenerationSoftware,KiCad,Pcbnew,7.0.2*%
%TF.CreationDate,2023-05-23T19:20:25-05:00*%
%TF.ProjectId,Asymptote_PCB,4173796d-7074-46f7-9465-5f5043422e6b,rev?*%
%TF.SameCoordinates,Original*%
%TF.FileFunction,Profile,NP*%
%FSLAX46Y46*%
G04 Gerber Fmt 4.6, Leading zero omitted, Abs format (unit mm)*
G04 Created by KiCad (PCBNEW 7.0.2) date 2023-05-23 19:20:25*
%MOMM*%
%LPD*%
G01*
G04 APERTURE LIST*
%TA.AperFunction,Profile*%
%ADD10C,0.100000*%
%TD*%
%TA.AperFunction,Profile*%
%ADD11C,0.150000*%
%TD*%
G04 APERTURE END LIST*
D10*
X265112500Y-118268750D02*
X28575000Y-118268750D01*
X26193750Y-71437500D02*
G75*
G03*
X28575000Y-73818750I2381250J0D01*
G01*
D11*
X247411875Y-45481875D02*
X247411875Y-62706250D01*
D10*
X26193750Y-115887500D02*
G75*
G03*
X28575000Y-118268750I2381250J0D01*
G01*
X28575000Y-43656250D02*
X227806250Y-43656250D01*
X267493750Y-115887500D02*
X267493750Y-46037500D01*
X28575000Y-88106250D02*
G75*
G03*
X26193750Y-90487500I0J-2381250D01*
G01*
X265112500Y-43656250D02*
X249237500Y-43656250D01*
X28575000Y-73818750D02*
X78581250Y-73818750D01*
X80962500Y-76200000D02*
X80962500Y-85725000D01*
D11*
X246062500Y-64055625D02*
X230981250Y-64038750D01*
D10*
X78581250Y-88106250D02*
X28575000Y-88106250D01*
X26193750Y-46037500D02*
X26193750Y-71437500D01*
D11*
X229648750Y-62706250D02*
X229631875Y-45481875D01*
D10*
X80962450Y-76200000D02*
G75*
G03*
X78581250Y-73818750I-2381250J0D01*
G01*
X267493750Y-46037500D02*
G75*
G03*
X265112500Y-43656250I-2381250J0D01*
G01*
X229631950Y-45481875D02*
G75*
G03*
X227806250Y-43656250I-1825650J-25D01*
G01*
X265112500Y-118268750D02*
G75*
G03*
X267493750Y-115887500I0J2381250D01*
G01*
X26193750Y-90487500D02*
X26193750Y-115887500D01*
X246062500Y-64055575D02*
G75*
G03*
X247411875Y-62706250I0J1349375D01*
G01*
X249237500Y-43656275D02*
G75*
G03*
X247411875Y-45481875I0J-1825625D01*
G01*
X229648750Y-62706250D02*
G75*
G03*
X230981250Y-64038750I1332450J-50D01*
G01*
X28575000Y-43656250D02*
G75*
G03*
X26193750Y-46037500I0J-2381250D01*
G01*
X78581250Y-88106300D02*
G75*
G03*
X80962500Y-85725000I-50J2381300D01*
G01*
M02*
