%TF.GenerationSoftware,KiCad,Pcbnew,(6.0.10)*%
%TF.CreationDate,2023-02-21T15:14:53-06:00*%
%TF.ProjectId,Asymptote_PCB,4173796d-7074-46f7-9465-5f5043422e6b,rev?*%
%TF.SameCoordinates,Original*%
%TF.FileFunction,Legend,Top*%
%TF.FilePolarity,Positive*%
%FSLAX46Y46*%
G04 Gerber Fmt 4.6, Leading zero omitted, Abs format (unit mm)*
G04 Created by KiCad (PCBNEW (6.0.10)) date 2023-02-21 15:14:53*
%MOMM*%
%LPD*%
G01*
G04 APERTURE LIST*
%ADD10C,0.300000*%
%ADD11C,0.120000*%
G04 APERTURE END LIST*
D10*
X92646428Y-83270357D02*
X91503571Y-83270357D01*
X92646428Y-80855357D02*
X91503571Y-80855357D01*
X92075000Y-80283928D02*
X92075000Y-81426785D01*
X92646428Y-78440357D02*
X91503571Y-78440357D01*
X247340178Y-82442857D02*
X246197321Y-82442857D01*
X246768750Y-81871428D02*
X246768750Y-83014285D01*
X244340178Y-82442857D02*
X243197321Y-82442857D01*
%TO.C,G\u002A\u002A\u002A*%
G36*
X33408936Y-59514044D02*
G01*
X33529310Y-60122809D01*
X33621507Y-60836910D01*
X33705748Y-61589483D01*
X33852353Y-62812344D01*
X34061277Y-64505131D01*
X34332473Y-66667487D01*
X34665897Y-69299051D01*
X35061502Y-72399463D01*
X35519245Y-75968364D01*
X36039078Y-80005395D01*
X36040055Y-80012968D01*
X36418682Y-82949473D01*
X36741352Y-85454443D01*
X37013050Y-87567180D01*
X37238763Y-89326986D01*
X37423476Y-90773164D01*
X37572176Y-91945018D01*
X37689849Y-92881849D01*
X37781481Y-93622960D01*
X37852057Y-94207655D01*
X37906565Y-94675236D01*
X37949989Y-95065005D01*
X37952353Y-95086799D01*
X38072827Y-95899779D01*
X38225881Y-96538238D01*
X38343813Y-96807827D01*
X38561265Y-96913092D01*
X39052629Y-96992470D01*
X39861759Y-97048354D01*
X41032511Y-97083139D01*
X42608738Y-97099217D01*
X43714989Y-97100921D01*
X45240606Y-97091609D01*
X46613040Y-97067613D01*
X47758694Y-97031490D01*
X48603971Y-96985799D01*
X49075276Y-96933096D01*
X49140084Y-96912368D01*
X49311902Y-96609360D01*
X49240136Y-96008621D01*
X49214309Y-95907124D01*
X49029607Y-95092813D01*
X48870822Y-94210613D01*
X48859925Y-94137267D01*
X48733451Y-93347490D01*
X48561161Y-92371169D01*
X48456659Y-91815528D01*
X48335056Y-91059669D01*
X48292395Y-90507897D01*
X48323406Y-90310842D01*
X48609279Y-90243437D01*
X49240296Y-90188587D01*
X50086840Y-90157057D01*
X50195438Y-90155369D01*
X51934988Y-90132376D01*
X53128714Y-93559120D01*
X54322440Y-96985865D01*
X59640227Y-97049866D01*
X61184235Y-97060537D01*
X62567341Y-97055019D01*
X63719510Y-97034826D01*
X64570704Y-97001473D01*
X65050889Y-96956474D01*
X65129038Y-96931175D01*
X65097669Y-96662216D01*
X64899947Y-96038195D01*
X64564268Y-95137035D01*
X64119027Y-94036656D01*
X63808160Y-93306425D01*
X63309891Y-92152565D01*
X62668288Y-90660236D01*
X61925558Y-88927981D01*
X61123907Y-87054342D01*
X60305541Y-85137862D01*
X59537884Y-83336332D01*
X58665402Y-81288510D01*
X57785799Y-79227939D01*
X56923339Y-77211143D01*
X56102287Y-75294651D01*
X55346907Y-73534990D01*
X54681463Y-71988684D01*
X54130219Y-70712263D01*
X53717440Y-69762251D01*
X53474967Y-69212033D01*
X52967173Y-67998549D01*
X52706159Y-67165782D01*
X52685761Y-66692675D01*
X52718239Y-66627161D01*
X52962219Y-66310931D01*
X53409610Y-65745316D01*
X53993495Y-65013496D01*
X54646960Y-64198654D01*
X55303089Y-63383969D01*
X55894967Y-62652622D01*
X56355679Y-62087795D01*
X56618309Y-61772668D01*
X56654197Y-61734463D01*
X56659535Y-61952575D01*
X56645010Y-62530937D01*
X56613719Y-63355589D01*
X56604206Y-63574183D01*
X56601119Y-64724290D01*
X56716269Y-65857296D01*
X56973129Y-67158904D01*
X57147916Y-67875560D01*
X57885506Y-70277418D01*
X58815463Y-72336065D01*
X59993671Y-74121621D01*
X61476014Y-75704206D01*
X63318375Y-77153939D01*
X65576639Y-78540939D01*
X65704129Y-78611362D01*
X67922335Y-79832588D01*
X69762702Y-80852090D01*
X71264224Y-81695425D01*
X72465892Y-82388150D01*
X73406697Y-82955821D01*
X74125630Y-83423996D01*
X74661685Y-83818230D01*
X75053851Y-84164082D01*
X75341122Y-84487107D01*
X75562487Y-84812862D01*
X75756940Y-85166905D01*
X75782790Y-85217349D01*
X76086487Y-85929064D01*
X76413112Y-86870833D01*
X76633010Y-87623467D01*
X76935391Y-89007583D01*
X76999900Y-90014503D01*
X76815662Y-90684015D01*
X76371802Y-91055909D01*
X75663655Y-91169977D01*
X75026579Y-91134244D01*
X74519804Y-90988042D01*
X74104645Y-90672869D01*
X73742415Y-90130222D01*
X73394428Y-89301599D01*
X73021997Y-88128498D01*
X72586435Y-86552414D01*
X72570371Y-86492228D01*
X72264596Y-85370548D01*
X71990303Y-84409649D01*
X71775985Y-83706307D01*
X71650134Y-83357297D01*
X71644324Y-83346901D01*
X71378370Y-83280751D01*
X70724643Y-83222456D01*
X69770086Y-83173111D01*
X68601646Y-83133808D01*
X67306266Y-83105640D01*
X65970891Y-83089700D01*
X64682467Y-83087082D01*
X63527937Y-83098879D01*
X62594247Y-83126183D01*
X61968340Y-83170088D01*
X61742059Y-83222408D01*
X61744982Y-83497231D01*
X61866499Y-84124442D01*
X62079227Y-85004661D01*
X62355780Y-86038510D01*
X62668774Y-87126609D01*
X62990823Y-88169579D01*
X63294543Y-89068041D01*
X63500020Y-89602021D01*
X64619830Y-91766311D01*
X66021247Y-93585157D01*
X67726128Y-95073953D01*
X69756330Y-96248091D01*
X72133710Y-97122966D01*
X74880123Y-97713971D01*
X75055675Y-97740527D01*
X77591542Y-97950284D01*
X80006922Y-97826484D01*
X82238461Y-97382677D01*
X84222804Y-96632412D01*
X85896596Y-95589239D01*
X86168812Y-95363787D01*
X86704065Y-94917819D01*
X87021076Y-94690401D01*
X87052300Y-94729891D01*
X87050261Y-94732744D01*
X86679922Y-95220376D01*
X86088960Y-95967386D01*
X85334567Y-96904359D01*
X84473932Y-97961876D01*
X83564246Y-99070520D01*
X82662699Y-100160875D01*
X81826482Y-101163522D01*
X81112785Y-102009044D01*
X80578798Y-102628024D01*
X80281712Y-102951045D01*
X80272136Y-102959986D01*
X79556979Y-103458393D01*
X78530156Y-103981152D01*
X77345812Y-104460830D01*
X76158091Y-104829994D01*
X75809321Y-104912310D01*
X74930047Y-105033154D01*
X73723784Y-105109197D01*
X72336233Y-105139980D01*
X70913097Y-105125043D01*
X69600076Y-105063927D01*
X68542873Y-104956173D01*
X68413425Y-104935631D01*
X67167907Y-104639031D01*
X65719383Y-104163870D01*
X64266396Y-103584889D01*
X63007487Y-102976827D01*
X62627591Y-102757569D01*
X61451036Y-102033709D01*
X60525785Y-103129880D01*
X59600535Y-104226052D01*
X48605854Y-104226052D01*
X47906424Y-102208295D01*
X47582714Y-101317536D01*
X47303618Y-100627789D01*
X47111318Y-100239898D01*
X47062465Y-100190538D01*
X46864241Y-100364326D01*
X46438450Y-100835170D01*
X45851457Y-101527288D01*
X45291788Y-102212497D01*
X43665638Y-104234456D01*
X38067627Y-104170908D01*
X32469615Y-104107360D01*
X32079842Y-100902687D01*
X31932974Y-99709809D01*
X31740185Y-98165740D01*
X31516564Y-96390117D01*
X31277201Y-94502580D01*
X31037186Y-92622766D01*
X30942105Y-91882126D01*
X30688492Y-89900650D01*
X30413115Y-87732974D01*
X30135591Y-85534600D01*
X29875538Y-83461029D01*
X29652571Y-81667761D01*
X29609492Y-81318575D01*
X29424108Y-79822647D01*
X29251443Y-78446969D01*
X29102343Y-77276582D01*
X28987654Y-76396527D01*
X28918221Y-75891843D01*
X28913167Y-75858762D01*
X28848180Y-75389533D01*
X28739390Y-74544116D01*
X28598739Y-73417804D01*
X28438166Y-72105891D01*
X28318264Y-71111098D01*
X28153362Y-69742769D01*
X28002722Y-68509083D01*
X27877500Y-67500165D01*
X27788854Y-66806142D01*
X27753445Y-66548808D01*
X27821279Y-66216632D01*
X28113474Y-65667110D01*
X28653712Y-64864700D01*
X29465677Y-63773861D01*
X30399137Y-62578220D01*
X31268293Y-61497220D01*
X32041560Y-60566697D01*
X32670114Y-59842883D01*
X33105127Y-59382012D01*
X33297520Y-59240154D01*
X33408936Y-59514044D01*
G37*
G36*
X190576824Y-62308756D02*
G01*
X190569556Y-62327921D01*
X190319820Y-63376439D01*
X190251618Y-64754006D01*
X190362674Y-66351927D01*
X190650715Y-68061508D01*
X190693564Y-68253716D01*
X190976252Y-69440240D01*
X191354828Y-70954908D01*
X191809337Y-72723924D01*
X192319822Y-74673492D01*
X192866326Y-76729815D01*
X193428893Y-78819097D01*
X193987565Y-80867539D01*
X194522386Y-82801347D01*
X195013400Y-84546723D01*
X195440649Y-86029870D01*
X195784178Y-87176993D01*
X195959932Y-87727921D01*
X196944844Y-90133232D01*
X198183127Y-92163124D01*
X199713079Y-93865435D01*
X201572998Y-95288004D01*
X202410313Y-95785202D01*
X204221073Y-96652320D01*
X206080759Y-97248355D01*
X208131255Y-97610287D01*
X209965692Y-97754386D01*
X212389926Y-97757614D01*
X214456633Y-97517068D01*
X216225089Y-97016304D01*
X217754569Y-96238879D01*
X219028277Y-95240278D01*
X219478371Y-94834290D01*
X219706669Y-94671654D01*
X219699523Y-94773291D01*
X219443281Y-95160121D01*
X218924295Y-95853065D01*
X218128916Y-96873044D01*
X217192437Y-98054089D01*
X215872140Y-99689936D01*
X214781365Y-100987277D01*
X213873649Y-101993917D01*
X213102530Y-102757661D01*
X212421547Y-103326314D01*
X211784237Y-103747682D01*
X211518307Y-103892290D01*
X209947401Y-104503066D01*
X208071338Y-104918785D01*
X206023159Y-105127114D01*
X203935904Y-105115717D01*
X201942614Y-104872259D01*
X201631901Y-104808912D01*
X198890835Y-104009762D01*
X196477334Y-102874338D01*
X194397083Y-101406319D01*
X192655766Y-99609384D01*
X191836394Y-98469510D01*
X191431265Y-97857251D01*
X191139034Y-97447745D01*
X191041927Y-97341940D01*
X190879144Y-97517922D01*
X190467783Y-98007404D01*
X189855265Y-98752685D01*
X189089009Y-99696065D01*
X188216436Y-100779845D01*
X188213108Y-100783996D01*
X185453091Y-104226052D01*
X174630290Y-104226052D01*
X171346109Y-91941472D01*
X170720233Y-89608042D01*
X170127440Y-87412755D01*
X169579572Y-85398449D01*
X169088469Y-83607965D01*
X168665972Y-82084141D01*
X168323922Y-80869816D01*
X168074160Y-80007831D01*
X167928527Y-79541023D01*
X167898852Y-79469623D01*
X167679360Y-79526008D01*
X167320094Y-79889159D01*
X167163419Y-80097372D01*
X166815667Y-80562679D01*
X166233493Y-81309271D01*
X165484331Y-82251987D01*
X164635616Y-83305662D01*
X164160574Y-83889678D01*
X163005964Y-85243940D01*
X161954232Y-86360581D01*
X161041809Y-87207889D01*
X160305124Y-87754155D01*
X159780609Y-87967669D01*
X159555397Y-87898210D01*
X159433678Y-87614158D01*
X159221156Y-86967686D01*
X158947985Y-86055473D01*
X158650812Y-84998014D01*
X158347651Y-83890120D01*
X158081413Y-82923215D01*
X157881878Y-82205075D01*
X157781612Y-81852687D01*
X157766557Y-81661941D01*
X157912875Y-81539887D01*
X158300978Y-81471232D01*
X159011277Y-81440686D01*
X159987683Y-81433145D01*
X162394166Y-81312517D01*
X164403024Y-80961131D01*
X166008845Y-80380922D01*
X167206214Y-79573822D01*
X167968849Y-78582617D01*
X168254108Y-77631817D01*
X168301747Y-76325700D01*
X168110198Y-74652071D01*
X167677892Y-72598734D01*
X167003262Y-70153496D01*
X166799710Y-69489624D01*
X166477896Y-68429031D01*
X166217658Y-67516037D01*
X166048278Y-66857056D01*
X165997605Y-66574587D01*
X166069995Y-66430924D01*
X166334107Y-66337814D01*
X166860355Y-66288742D01*
X167719154Y-66277190D01*
X168980917Y-66296642D01*
X168996981Y-66296997D01*
X171996356Y-66363435D01*
X176061524Y-81506750D01*
X176924006Y-84703023D01*
X177705554Y-87565426D01*
X178401340Y-90077163D01*
X179006533Y-92221439D01*
X179516304Y-93981455D01*
X179925822Y-95340416D01*
X180230258Y-96281525D01*
X180424781Y-96787986D01*
X180480373Y-96873676D01*
X180824483Y-96944067D01*
X181554403Y-97001171D01*
X182581688Y-97044759D01*
X183817892Y-97074600D01*
X185174569Y-97090465D01*
X186563273Y-97092124D01*
X187895559Y-97079347D01*
X189082981Y-97051905D01*
X190037094Y-97009567D01*
X190669451Y-96952103D01*
X190876734Y-96900691D01*
X190916260Y-96767421D01*
X190892423Y-96436965D01*
X190798558Y-95882092D01*
X190628001Y-95075571D01*
X190374085Y-93990171D01*
X190030145Y-92598663D01*
X189589517Y-90873815D01*
X189045535Y-88788398D01*
X188391533Y-86315179D01*
X187620847Y-83426929D01*
X187137949Y-81626037D01*
X186443641Y-79038101D01*
X185786945Y-76586001D01*
X185178057Y-74308084D01*
X184627170Y-72242700D01*
X184144481Y-70428196D01*
X183740183Y-68902920D01*
X183424472Y-67705222D01*
X183207542Y-66873450D01*
X183099589Y-66445952D01*
X183089194Y-66396361D01*
X183311873Y-66339959D01*
X183921154Y-66293071D01*
X184828899Y-66260027D01*
X185946971Y-66245157D01*
X186175175Y-66244743D01*
X187323142Y-66231784D01*
X188277481Y-66196324D01*
X188950057Y-66143494D01*
X189252737Y-66078424D01*
X189261157Y-66065139D01*
X189200921Y-65734373D01*
X189053599Y-65162716D01*
X189030608Y-65081660D01*
X188930898Y-64613811D01*
X188984122Y-64220738D01*
X189243254Y-63759986D01*
X189761269Y-63089098D01*
X189780365Y-63065470D01*
X190237869Y-62530760D01*
X190522261Y-62260853D01*
X190576824Y-62308756D01*
G37*
G36*
X78925874Y-59109621D02*
G01*
X79075782Y-59286646D01*
X79261450Y-59582876D01*
X79655637Y-60243795D01*
X80230801Y-61222169D01*
X80959398Y-62470768D01*
X81813886Y-63942359D01*
X82766721Y-65589712D01*
X83790361Y-67365594D01*
X84033189Y-67787734D01*
X85159857Y-69745940D01*
X86299282Y-71724142D01*
X87409386Y-73649439D01*
X88448092Y-75448934D01*
X89373323Y-77049725D01*
X90143001Y-78378912D01*
X90678482Y-79300818D01*
X92682862Y-82742874D01*
X94575361Y-89738938D01*
X95056261Y-91489234D01*
X95510725Y-93091521D01*
X95921269Y-94488127D01*
X96270409Y-95621379D01*
X96540660Y-96433606D01*
X96714540Y-96867136D01*
X96752826Y-96921360D01*
X97067954Y-96975120D01*
X97781452Y-97016761D01*
X98817035Y-97044405D01*
X100098417Y-97056172D01*
X101549312Y-97050183D01*
X101845038Y-97046791D01*
X103296768Y-97033955D01*
X104571792Y-97033322D01*
X105599667Y-97044046D01*
X106309950Y-97065278D01*
X106632195Y-97096171D01*
X106644017Y-97104556D01*
X106498836Y-97317508D01*
X106099960Y-97838509D01*
X105494220Y-98608068D01*
X104728448Y-99566692D01*
X103849476Y-100654890D01*
X103841021Y-100665304D01*
X101046291Y-104107360D01*
X96009774Y-104171443D01*
X94250597Y-104187429D01*
X92916833Y-104183286D01*
X91959465Y-104156755D01*
X91329474Y-104105576D01*
X90977845Y-104027490D01*
X90859493Y-103934060D01*
X90633692Y-103251326D01*
X90330047Y-102212728D01*
X89970126Y-100904183D01*
X89575498Y-99411608D01*
X89167731Y-97820920D01*
X88768395Y-96218037D01*
X88399058Y-94688875D01*
X88081289Y-93319352D01*
X87836657Y-92195385D01*
X87686730Y-91402891D01*
X87655175Y-91169977D01*
X87346824Y-89162661D01*
X86822853Y-86973461D01*
X86141384Y-84808397D01*
X85360537Y-82873490D01*
X85246892Y-82633309D01*
X83944868Y-80467247D01*
X82279198Y-78558898D01*
X80352891Y-77010883D01*
X79605228Y-76449765D01*
X78981181Y-75867209D01*
X78670343Y-75471852D01*
X78311319Y-75009334D01*
X77958096Y-74793070D01*
X77725840Y-74873583D01*
X77691063Y-75042253D01*
X77494302Y-75008833D01*
X76953898Y-74788729D01*
X76144668Y-74419517D01*
X75141430Y-73938774D01*
X74019002Y-73384077D01*
X72852201Y-72793004D01*
X71715845Y-72203132D01*
X70684752Y-71652038D01*
X69833739Y-71177298D01*
X69237623Y-70816491D01*
X69125341Y-70740121D01*
X68507556Y-70106566D01*
X67902112Y-69162190D01*
X67387251Y-68066342D01*
X67041217Y-66978372D01*
X66940597Y-66290733D01*
X67005218Y-65281697D01*
X67320571Y-64653670D01*
X67910728Y-64370496D01*
X68235592Y-64345678D01*
X68934729Y-64494912D01*
X69515798Y-64972821D01*
X70012765Y-65824712D01*
X70459594Y-67095894D01*
X70555694Y-67440612D01*
X70793709Y-68365563D01*
X70987811Y-69066091D01*
X71202962Y-69573079D01*
X71504126Y-69917414D01*
X71956264Y-70129981D01*
X72624339Y-70241664D01*
X73573313Y-70283349D01*
X74868150Y-70285920D01*
X76528496Y-70280257D01*
X78189619Y-70277847D01*
X79433494Y-70267343D01*
X80317631Y-70243834D01*
X80899537Y-70202407D01*
X81236721Y-70138152D01*
X81386691Y-70046158D01*
X81406956Y-69921512D01*
X81392695Y-69864837D01*
X81271799Y-69458919D01*
X81057590Y-68726119D01*
X80787825Y-67795871D01*
X80661635Y-67358672D01*
X79919321Y-65159566D01*
X79063317Y-63352277D01*
X78057163Y-61860178D01*
X78028513Y-61824702D01*
X77235141Y-60846717D01*
X77997214Y-59851651D01*
X78449144Y-59287754D01*
X78725343Y-59057884D01*
X78925874Y-59109621D01*
G37*
G36*
X104635496Y-59435219D02*
G01*
X104760469Y-59845570D01*
X104867290Y-60239779D01*
X105087204Y-61054958D01*
X105410112Y-62253571D01*
X105825915Y-63798083D01*
X106324514Y-65650958D01*
X106895811Y-67774661D01*
X107529708Y-70131656D01*
X108216105Y-72684408D01*
X108944904Y-75395381D01*
X109706007Y-78227040D01*
X109858574Y-78794722D01*
X110664247Y-81779964D01*
X111428578Y-84587277D01*
X112142706Y-87185423D01*
X112797769Y-89543160D01*
X113384906Y-91629249D01*
X113895257Y-93412451D01*
X114319961Y-94861525D01*
X114650157Y-95945230D01*
X114876985Y-96632329D01*
X114991544Y-96891555D01*
X115324029Y-96957505D01*
X116049335Y-97015097D01*
X117085542Y-97060653D01*
X118350728Y-97090496D01*
X119655990Y-97100921D01*
X121239962Y-97096093D01*
X122409058Y-97075579D01*
X123223035Y-97034893D01*
X123741652Y-96969544D01*
X124024667Y-96875045D01*
X124125921Y-96765162D01*
X124091757Y-96474612D01*
X123943772Y-95771752D01*
X123693369Y-94702225D01*
X123351948Y-93311676D01*
X122930911Y-91645748D01*
X122441660Y-89750087D01*
X121895595Y-87670337D01*
X121304120Y-85452141D01*
X121246096Y-85236291D01*
X120477073Y-82366080D01*
X119833897Y-79939465D01*
X119313490Y-77943114D01*
X118912774Y-76363695D01*
X118628673Y-75187879D01*
X118458109Y-74402333D01*
X118398005Y-73993726D01*
X118445283Y-73948728D01*
X118596867Y-74254006D01*
X118849679Y-74896231D01*
X118874751Y-74963283D01*
X119226366Y-75869222D01*
X119600951Y-76780665D01*
X119715393Y-77045678D01*
X119933626Y-77551010D01*
X120300583Y-78411782D01*
X120781351Y-79545619D01*
X121341016Y-80870146D01*
X121944667Y-82302990D01*
X122079742Y-82624183D01*
X122679281Y-84050147D01*
X123233345Y-85367685D01*
X123709360Y-86499358D01*
X124074750Y-87367725D01*
X124296942Y-87895346D01*
X124326453Y-87965304D01*
X125058690Y-89699034D01*
X125634698Y-91061444D01*
X126082564Y-92118742D01*
X126430376Y-92937137D01*
X126706222Y-93582837D01*
X126938187Y-94122049D01*
X126944759Y-94137267D01*
X127305505Y-94983609D01*
X127640869Y-95788340D01*
X127766909Y-96098697D01*
X128122779Y-96674471D01*
X128561177Y-96993037D01*
X128580459Y-96998285D01*
X129009359Y-97041890D01*
X129798162Y-97066833D01*
X130832299Y-97071188D01*
X131933119Y-97054611D01*
X134781717Y-96985865D01*
X134768955Y-96155024D01*
X134745809Y-95731059D01*
X134683584Y-95028247D01*
X134579644Y-94024190D01*
X134431353Y-92696495D01*
X134236072Y-91022765D01*
X133991166Y-88980603D01*
X133693997Y-86547616D01*
X133341929Y-83701406D01*
X132932326Y-80419578D01*
X132672845Y-78351387D01*
X132497060Y-76928597D01*
X132348202Y-75677325D01*
X132234390Y-74669796D01*
X132163742Y-73978232D01*
X132144378Y-73674857D01*
X132146310Y-73667378D01*
X132216560Y-73878457D01*
X132397232Y-74505049D01*
X132676476Y-75503914D01*
X133042443Y-76831815D01*
X133483285Y-78445511D01*
X133987151Y-80301764D01*
X134542192Y-82357336D01*
X135136561Y-84568986D01*
X135261170Y-85033927D01*
X135869767Y-87288403D01*
X136450952Y-89408091D01*
X136991689Y-91347754D01*
X137478947Y-93062155D01*
X137899692Y-94506057D01*
X138240890Y-95634221D01*
X138489508Y-96401412D01*
X138632513Y-96762390D01*
X138645364Y-96780085D01*
X138878254Y-96902294D01*
X139335029Y-96991465D01*
X140072990Y-97051561D01*
X141149440Y-97086544D01*
X142621679Y-97100376D01*
X143285122Y-97100921D01*
X144680636Y-97090542D01*
X145918457Y-97063934D01*
X146917690Y-97024240D01*
X147597439Y-96974599D01*
X147871038Y-96922884D01*
X147880910Y-96717620D01*
X147790589Y-96169006D01*
X147596801Y-95263986D01*
X147296271Y-93989503D01*
X146885726Y-92332499D01*
X146361891Y-90279916D01*
X145721492Y-87818698D01*
X144961254Y-84935787D01*
X144077905Y-81618126D01*
X143381012Y-79016898D01*
X138620356Y-61285315D01*
X139520406Y-60186922D01*
X140020997Y-59637978D01*
X140416255Y-59316715D01*
X140596780Y-59283926D01*
X140684231Y-59538496D01*
X140884338Y-60217120D01*
X141187571Y-61285076D01*
X141584401Y-62707645D01*
X142065297Y-64450107D01*
X142620729Y-66477739D01*
X143241168Y-68755823D01*
X143917083Y-71249637D01*
X144638945Y-73924461D01*
X145397224Y-76745574D01*
X145716685Y-77937399D01*
X146487651Y-80811312D01*
X147226200Y-83555314D01*
X147922775Y-86134439D01*
X148567820Y-88513722D01*
X149151778Y-90658196D01*
X149665091Y-92532895D01*
X150098203Y-94102853D01*
X150441557Y-95333103D01*
X150685595Y-96188680D01*
X150820762Y-96634617D01*
X150842331Y-96690670D01*
X151056067Y-96798345D01*
X151577220Y-96888360D01*
X152442996Y-96963511D01*
X153690602Y-97026590D01*
X155357242Y-97080393D01*
X156353366Y-97104556D01*
X161682339Y-97223248D01*
X158893045Y-100665304D01*
X156103752Y-104107360D01*
X150651788Y-104170968D01*
X145199825Y-104234576D01*
X144894535Y-103043398D01*
X144687548Y-102371425D01*
X144487728Y-101939469D01*
X144391142Y-101852220D01*
X144153761Y-102026577D01*
X143732850Y-102480757D01*
X143285509Y-103032440D01*
X142377979Y-104212660D01*
X137646165Y-104160010D01*
X132914352Y-104107360D01*
X132423735Y-102490737D01*
X131933119Y-100874113D01*
X130561806Y-102556561D01*
X129190492Y-104239010D01*
X125816773Y-104173185D01*
X122443055Y-104107360D01*
X121846965Y-102626343D01*
X121530374Y-101880713D01*
X121272670Y-101347829D01*
X121129490Y-101142705D01*
X121129269Y-101142698D01*
X120938335Y-101316115D01*
X120537489Y-101779653D01*
X120002595Y-102444313D01*
X119823661Y-102674376D01*
X118639661Y-104208682D01*
X109118105Y-104226052D01*
X106163930Y-93365771D01*
X103209755Y-82505491D01*
X103225303Y-79538201D01*
X103241878Y-78463862D01*
X103280040Y-77091903D01*
X103336682Y-75481983D01*
X103408697Y-73693756D01*
X103492978Y-71786880D01*
X103586418Y-69821009D01*
X103685910Y-67855800D01*
X103788346Y-65950910D01*
X103890620Y-64165994D01*
X103989624Y-62560709D01*
X104082251Y-61194710D01*
X104165394Y-60127654D01*
X104235946Y-59419197D01*
X104288063Y-59133421D01*
X104446738Y-59064839D01*
X104635496Y-59435219D01*
G37*
G36*
X238239388Y-59062081D02*
G01*
X238314216Y-59310243D01*
X238500419Y-59975437D01*
X238786799Y-61016025D01*
X239162159Y-62390368D01*
X239615302Y-64056828D01*
X240135031Y-65973766D01*
X240710149Y-68099543D01*
X241329458Y-70392521D01*
X241981762Y-72811061D01*
X242655863Y-75313524D01*
X243340564Y-77858271D01*
X244024670Y-80403665D01*
X244696981Y-82908065D01*
X245346301Y-85329834D01*
X245961434Y-87627333D01*
X246531182Y-89758924D01*
X247044347Y-91682966D01*
X247489734Y-93357823D01*
X247856144Y-94741854D01*
X248132381Y-95793422D01*
X248307248Y-96470888D01*
X248369547Y-96732613D01*
X248369568Y-96733272D01*
X248598522Y-96762654D01*
X249251673Y-96789807D01*
X250278454Y-96814009D01*
X251628299Y-96834538D01*
X253250639Y-96850672D01*
X255094909Y-96861689D01*
X257110541Y-96866866D01*
X257746203Y-96867173D01*
X259803646Y-96871520D01*
X261704978Y-96883922D01*
X263399639Y-96903417D01*
X264837070Y-96929046D01*
X265966712Y-96959849D01*
X266738006Y-96994866D01*
X267100391Y-97033137D01*
X267121812Y-97045211D01*
X266978578Y-97277209D01*
X266580796Y-97815367D01*
X265975333Y-98599029D01*
X265209054Y-99567540D01*
X264328824Y-100660246D01*
X264324715Y-100665304D01*
X261528645Y-104107360D01*
X252214373Y-104169466D01*
X242900102Y-104231571D01*
X242690611Y-103680567D01*
X242550697Y-103244304D01*
X242322587Y-102458240D01*
X242037339Y-101432121D01*
X241726013Y-100275690D01*
X241712005Y-100222790D01*
X240942891Y-97316018D01*
X240205295Y-98196664D01*
X239774612Y-98717745D01*
X239129797Y-99506377D01*
X238354288Y-100460172D01*
X237531520Y-101476739D01*
X237438212Y-101592335D01*
X235408725Y-104107360D01*
X230014253Y-104171177D01*
X228189261Y-104186914D01*
X226791197Y-104184153D01*
X225772510Y-104160842D01*
X225085648Y-104114931D01*
X224683057Y-104044367D01*
X224517185Y-103947100D01*
X224511023Y-103933794D01*
X224351589Y-103429462D01*
X224100854Y-102560237D01*
X223778618Y-101401259D01*
X223404681Y-100027673D01*
X222998842Y-98514619D01*
X222580902Y-96937241D01*
X222170661Y-95370680D01*
X221787918Y-93890079D01*
X221452474Y-92570580D01*
X221184128Y-91487326D01*
X221002680Y-90715458D01*
X220928839Y-90339136D01*
X220801944Y-89345121D01*
X220630007Y-88277608D01*
X220400769Y-87083062D01*
X220101967Y-85707945D01*
X219721343Y-84098719D01*
X219246636Y-82201848D01*
X218665585Y-79963795D01*
X217965929Y-77331022D01*
X217856079Y-76921420D01*
X217113330Y-74184687D01*
X216462404Y-71862875D01*
X215885609Y-69908941D01*
X215365250Y-68275844D01*
X214883634Y-66916543D01*
X214423067Y-65783995D01*
X213965856Y-64831159D01*
X213494307Y-64010993D01*
X212990727Y-63276455D01*
X212482122Y-62633703D01*
X211546125Y-61515186D01*
X212546858Y-60189724D01*
X213060141Y-59562856D01*
X213473763Y-59154484D01*
X213704305Y-59045935D01*
X213712751Y-59053101D01*
X213826840Y-59338418D01*
X214031710Y-59999434D01*
X214302799Y-60951302D01*
X214615546Y-62109179D01*
X214781023Y-62743341D01*
X215684135Y-66244743D01*
X218824399Y-66244743D01*
X220110843Y-66250898D01*
X220998986Y-66275867D01*
X221565206Y-66329409D01*
X221885882Y-66421285D01*
X222037393Y-66561251D01*
X222075732Y-66660164D01*
X222155136Y-66956262D01*
X222347022Y-67671385D01*
X222640786Y-68766025D01*
X223025823Y-70200671D01*
X223491529Y-71935815D01*
X224027300Y-73931949D01*
X224622532Y-76149563D01*
X225266621Y-78549149D01*
X225948963Y-81091197D01*
X226185227Y-81971379D01*
X230183652Y-96867173D01*
X235597171Y-96867173D01*
X237143150Y-96860835D01*
X238517078Y-96843065D01*
X239652407Y-96815726D01*
X240482587Y-96780681D01*
X240941071Y-96739796D01*
X241010689Y-96715556D01*
X240950701Y-96466110D01*
X240777544Y-95796623D01*
X240501429Y-94745507D01*
X240132568Y-93351176D01*
X239681174Y-91652042D01*
X239157457Y-89686519D01*
X238571629Y-87493020D01*
X237933902Y-85109957D01*
X237254487Y-82575743D01*
X236975175Y-81535191D01*
X236282126Y-78952246D01*
X235626694Y-76505724D01*
X235019086Y-74233969D01*
X234469510Y-72175324D01*
X233988173Y-70368134D01*
X233585283Y-68850742D01*
X233271045Y-67661493D01*
X233055668Y-66838730D01*
X232949359Y-66420797D01*
X232939661Y-66375593D01*
X233162344Y-66326917D01*
X233771633Y-66286451D01*
X234679390Y-66257933D01*
X235797474Y-66245100D01*
X236025643Y-66244743D01*
X237313628Y-66236548D01*
X238196611Y-66206686D01*
X238744156Y-66147246D01*
X239025827Y-66050313D01*
X239111191Y-65907974D01*
X239111624Y-65893706D01*
X239051887Y-65542041D01*
X238888573Y-64831150D01*
X238645523Y-63859154D01*
X238346579Y-62724174D01*
X238296222Y-62537946D01*
X237963387Y-61279530D01*
X237756576Y-60397953D01*
X237664372Y-59815614D01*
X237675360Y-59454912D01*
X237778126Y-59238248D01*
X237806321Y-59207723D01*
X238116879Y-59018416D01*
X238239388Y-59062081D01*
G37*
G36*
X87423773Y-94137267D02*
G01*
X87305082Y-94255958D01*
X87186390Y-94137267D01*
X87305082Y-94018575D01*
X87423773Y-94137267D01*
G37*
G36*
X220285880Y-93907336D02*
G01*
X220150426Y-94081877D01*
X219950834Y-94231890D01*
X220000641Y-93994027D01*
X220017540Y-93948991D01*
X220205594Y-93658306D01*
X220312507Y-93656219D01*
X220285880Y-93907336D01*
G37*
G36*
X87661157Y-93662500D02*
G01*
X87542465Y-93781192D01*
X87423773Y-93662500D01*
X87542465Y-93543809D01*
X87661157Y-93662500D01*
G37*
G36*
X202767641Y-64409281D02*
G01*
X203193590Y-64672276D01*
X203463378Y-65047855D01*
X203610472Y-65417635D01*
X203861043Y-66193364D01*
X204200560Y-67321123D01*
X204614491Y-68746997D01*
X205088302Y-70417066D01*
X205607464Y-72277413D01*
X206157443Y-74274121D01*
X206723707Y-76353272D01*
X207291725Y-78460949D01*
X207846964Y-80543233D01*
X208374893Y-82546208D01*
X208860979Y-84415956D01*
X209290691Y-86098560D01*
X209649497Y-87540101D01*
X209922863Y-88686662D01*
X210096260Y-89484326D01*
X210155189Y-89876239D01*
X209978220Y-90653351D01*
X209516178Y-91095029D01*
X208855716Y-91161173D01*
X208103372Y-90825745D01*
X207919125Y-90665436D01*
X207734892Y-90423680D01*
X207539121Y-90063980D01*
X207320266Y-89549837D01*
X207066776Y-88844752D01*
X206767103Y-87912227D01*
X206409698Y-86715763D01*
X205983011Y-85218862D01*
X205475494Y-83385025D01*
X204875598Y-81177754D01*
X204171774Y-78560550D01*
X203893264Y-77520444D01*
X203193145Y-74901399D01*
X202607197Y-72700817D01*
X202126191Y-70878712D01*
X201740900Y-69395098D01*
X201442096Y-68209989D01*
X201220549Y-67283400D01*
X201067032Y-66575343D01*
X200972317Y-66045834D01*
X200927174Y-65654885D01*
X200922377Y-65362511D01*
X200948696Y-65128726D01*
X200990021Y-64940696D01*
X201158367Y-64550189D01*
X201501831Y-64380106D01*
X202087860Y-64345678D01*
X202767641Y-64409281D01*
G37*
G36*
X261262278Y-80663242D02*
G01*
X261633963Y-80686468D01*
X261663410Y-80697989D01*
X261523763Y-80906865D01*
X261146605Y-81405606D01*
X260594133Y-82115867D01*
X259928543Y-82959305D01*
X259212033Y-83857574D01*
X258506798Y-84732332D01*
X257875036Y-85505232D01*
X257378945Y-86097931D01*
X257345244Y-86137237D01*
X256872418Y-86603811D01*
X256604849Y-86672188D01*
X256567229Y-86612003D01*
X256465782Y-86262784D01*
X256275791Y-85566995D01*
X256027825Y-84637645D01*
X255841653Y-83929790D01*
X255569711Y-82893094D01*
X255333913Y-82000027D01*
X255165640Y-81369128D01*
X255106604Y-81153193D01*
X255102463Y-80992571D01*
X255241835Y-80877643D01*
X255593384Y-80798291D01*
X256225776Y-80744395D01*
X257207676Y-80705836D01*
X258328066Y-80678427D01*
X259524611Y-80658725D01*
X260530921Y-80653829D01*
X261262278Y-80663242D01*
G37*
G36*
X44335061Y-68759315D02*
G01*
X44640479Y-69429523D01*
X45025178Y-70426552D01*
X45160936Y-70806580D01*
X45755374Y-72489804D01*
X46338447Y-74124356D01*
X46879436Y-75625352D01*
X47347622Y-76907911D01*
X47712286Y-77887148D01*
X47891334Y-78351285D01*
X48378786Y-79585208D01*
X48830375Y-80741595D01*
X49215025Y-81739506D01*
X49501657Y-82498002D01*
X49659196Y-82936141D01*
X49679848Y-83009465D01*
X49466088Y-83048309D01*
X48919128Y-83076996D01*
X48180453Y-83094328D01*
X47391544Y-83099107D01*
X46693885Y-83090139D01*
X46228958Y-83066224D01*
X46117726Y-83039603D01*
X46080929Y-82793591D01*
X45986637Y-82213650D01*
X45877129Y-81555958D01*
X45762832Y-80835904D01*
X45598578Y-79749254D01*
X45399285Y-78399725D01*
X45179874Y-76891034D01*
X44955263Y-75326897D01*
X44740372Y-73811032D01*
X44550120Y-72447155D01*
X44399425Y-71338984D01*
X44323464Y-70755024D01*
X44213596Y-69926039D01*
X44105019Y-69177093D01*
X44079483Y-69015926D01*
X44036064Y-68521886D01*
X44127423Y-68446560D01*
X44335061Y-68759315D01*
G37*
G36*
X125879848Y-75146612D02*
G01*
X125761157Y-75265304D01*
X125642465Y-75146612D01*
X125761157Y-75027921D01*
X125879848Y-75146612D01*
G37*
G36*
X123714224Y-59344015D02*
G01*
X123807010Y-60017152D01*
X123931403Y-60967707D01*
X124074470Y-62098752D01*
X124088210Y-62209229D01*
X124264571Y-63610772D01*
X124478287Y-65281035D01*
X124703359Y-67018215D01*
X124913787Y-68620512D01*
X124929268Y-68737267D01*
X125174675Y-70593609D01*
X125361866Y-72031571D01*
X125496572Y-73103212D01*
X125584520Y-73860590D01*
X125631440Y-74355766D01*
X125643061Y-74640799D01*
X125625112Y-74767749D01*
X125595419Y-74790538D01*
X125465616Y-74585219D01*
X125188888Y-74022793D01*
X124802919Y-73183560D01*
X124345393Y-72147817D01*
X124230708Y-71882594D01*
X123735009Y-70732484D01*
X123280714Y-69680154D01*
X122914597Y-68833841D01*
X122683436Y-68301781D01*
X122666245Y-68262500D01*
X122444821Y-67743769D01*
X122098082Y-66916113D01*
X121680502Y-65910014D01*
X121391183Y-65208289D01*
X120428284Y-62866226D01*
X122020270Y-60857368D01*
X122666980Y-60063915D01*
X123197569Y-59455647D01*
X123550912Y-59099871D01*
X123665981Y-59045225D01*
X123714224Y-59344015D01*
G37*
G36*
X154020670Y-65189298D02*
G01*
X154846681Y-65383843D01*
X155497528Y-65573686D01*
X155938628Y-65759465D01*
X156302292Y-66064095D01*
X156624632Y-66557173D01*
X156941760Y-67308297D01*
X157289787Y-68387063D01*
X157684705Y-69788980D01*
X158081656Y-71344534D01*
X158313078Y-72511926D01*
X158382141Y-73346775D01*
X158292015Y-73904702D01*
X158045868Y-74241328D01*
X157942183Y-74307419D01*
X157505597Y-74444004D01*
X156901998Y-74530535D01*
X156304200Y-74556579D01*
X155885015Y-74511701D01*
X155790128Y-74437354D01*
X155730822Y-74182718D01*
X155565706Y-73542719D01*
X155313984Y-72590008D01*
X154994861Y-71397232D01*
X154627542Y-70037042D01*
X154603213Y-69947354D01*
X154232277Y-68567136D01*
X153908723Y-67338016D01*
X153651959Y-66335804D01*
X153481391Y-65636306D01*
X153416426Y-65315331D01*
X153416297Y-65310969D01*
X153559552Y-65166985D01*
X154020670Y-65189298D01*
G37*
G36*
X255703426Y-69568108D02*
G01*
X254853891Y-70635173D01*
X254108708Y-71560078D01*
X253516310Y-72283610D01*
X253125130Y-72746557D01*
X252985050Y-72891472D01*
X252874144Y-72687366D01*
X252705666Y-72179551D01*
X252655264Y-72001285D01*
X252480652Y-71365805D01*
X252224004Y-70437137D01*
X251930717Y-69379436D01*
X251818222Y-68974650D01*
X251557211Y-68006920D01*
X251353903Y-67197622D01*
X251237546Y-66665943D01*
X251221115Y-66541472D01*
X251341549Y-66420354D01*
X251740070Y-66334470D01*
X252468323Y-66279508D01*
X253577956Y-66251158D01*
X254776532Y-66244743D01*
X258334898Y-66244743D01*
X255703426Y-69568108D01*
G37*
G36*
X93997478Y-59572897D02*
G01*
X94142038Y-59976936D01*
X94240473Y-60751988D01*
X94317590Y-61931828D01*
X94398192Y-63550234D01*
X94402280Y-63633528D01*
X94504267Y-65605553D01*
X94600222Y-67215160D01*
X94698104Y-68574491D01*
X94805869Y-69795686D01*
X94911792Y-70814369D01*
X94963115Y-71582427D01*
X94897396Y-71891466D01*
X94715724Y-71740854D01*
X94419185Y-71129954D01*
X94409677Y-71107265D01*
X94193861Y-70602580D01*
X93828658Y-69761159D01*
X93356607Y-68680505D01*
X92820249Y-67458124D01*
X92522724Y-66782219D01*
X92001811Y-65588490D01*
X91556381Y-64545390D01*
X91218917Y-63730794D01*
X91021904Y-63222579D01*
X90984521Y-63094563D01*
X91121659Y-62834874D01*
X91491456Y-62292125D01*
X92031491Y-61555184D01*
X92461896Y-60991333D01*
X93039002Y-60249088D01*
X93470765Y-59742749D01*
X93781988Y-59506094D01*
X93997478Y-59572897D01*
G37*
G36*
X165285456Y-64226986D02*
G01*
X165166764Y-64345678D01*
X165048072Y-64226986D01*
X165166764Y-64108295D01*
X165285456Y-64226986D01*
G37*
G36*
X164427844Y-61246290D02*
G01*
X164683969Y-62255990D01*
X164866414Y-63087970D01*
X164954853Y-63641512D01*
X164946148Y-63814580D01*
X164819635Y-63771582D01*
X164810689Y-63686623D01*
X164658896Y-63398923D01*
X164256242Y-62871467D01*
X163681817Y-62205874D01*
X163524061Y-62033494D01*
X162237432Y-60643782D01*
X163005757Y-59728620D01*
X163774081Y-58813459D01*
X164427844Y-61246290D01*
G37*
D11*
%TO.C,J1*%
X247471875Y-44497750D02*
X246141875Y-44497750D01*
X247471875Y-45827750D02*
X247471875Y-44497750D01*
%TD*%
M02*
