%TF.GenerationSoftware,KiCad,Pcbnew,7.0.2*%
%TF.CreationDate,2023-05-23T19:20:25-05:00*%
%TF.ProjectId,Asymptote_PCB,4173796d-7074-46f7-9465-5f5043422e6b,rev?*%
%TF.SameCoordinates,Original*%
%TF.FileFunction,Soldermask,Bot*%
%TF.FilePolarity,Negative*%
%FSLAX46Y46*%
G04 Gerber Fmt 4.6, Leading zero omitted, Abs format (unit mm)*
G04 Created by KiCad (PCBNEW 7.0.2) date 2023-05-23 19:20:25*
%MOMM*%
%LPD*%
G01*
G04 APERTURE LIST*
G04 Aperture macros list*
%AMOutline5P*
0 Free polygon, 5 corners , with rotation*
0 The origin of the aperture is its center*
0 number of corners: always 5*
0 $1 to $10 corner X, Y*
0 $11 Rotation angle, in degrees counterclockwise*
0 create outline with 5 corners*
4,1,5,$1,$2,$3,$4,$5,$6,$7,$8,$9,$10,$1,$2,$11*%
%AMOutline6P*
0 Free polygon, 6 corners , with rotation*
0 The origin of the aperture is its center*
0 number of corners: always 6*
0 $1 to $12 corner X, Y*
0 $13 Rotation angle, in degrees counterclockwise*
0 create outline with 6 corners*
4,1,6,$1,$2,$3,$4,$5,$6,$7,$8,$9,$10,$11,$12,$1,$2,$13*%
%AMOutline7P*
0 Free polygon, 7 corners , with rotation*
0 The origin of the aperture is its center*
0 number of corners: always 7*
0 $1 to $14 corner X, Y*
0 $15 Rotation angle, in degrees counterclockwise*
0 create outline with 7 corners*
4,1,7,$1,$2,$3,$4,$5,$6,$7,$8,$9,$10,$11,$12,$13,$14,$1,$2,$15*%
%AMOutline8P*
0 Free polygon, 8 corners , with rotation*
0 The origin of the aperture is its center*
0 number of corners: always 8*
0 $1 to $16 corner X, Y*
0 $17 Rotation angle, in degrees counterclockwise*
0 create outline with 8 corners*
4,1,8,$1,$2,$3,$4,$5,$6,$7,$8,$9,$10,$11,$12,$13,$14,$15,$16,$1,$2,$17*%
%AMFreePoly0*
4,1,32,-1.150000,0.000000,-1.141867,0.136527,-1.095394,0.350159,-1.009331,0.551136,-0.886788,0.732194,-0.732194,0.886788,-0.551136,1.009331,-0.350159,1.095394,-0.136527,1.141867,0.000000,1.150000,0.136527,1.141867,0.350159,1.095394,0.551136,1.009331,0.732194,0.886788,0.886788,0.732194,1.009331,0.551136,1.095394,0.350159,1.141867,0.136527,1.150000,0.000000,1.150000,-0.115000,
0.115000,-1.150000,0.000000,-1.150000,-0.136527,-1.141867,-0.350159,-1.095394,-0.551136,-1.009331,-0.732194,-0.886788,-0.886788,-0.732194,-1.009331,-0.551136,-1.095394,-0.350159,-1.141867,-0.136527,-1.150000,0.000000,-1.150000,0.000000,-1.150000,0.000000,$1*%
G04 Aperture macros list end*
%ADD10R,1.700000X1.700000*%
%ADD11Outline5P,-0.850000X0.340000X-0.340000X0.850000X0.850000X0.850000X0.850000X-0.850000X-0.850000X-0.850000X180.000000*%
%ADD12R,1.500000X2.200000*%
%ADD13R,1.350000X1.350000*%
%ADD14O,1.350000X1.350000*%
%ADD15R,1.800000X1.800000*%
%ADD16O,1.800000X1.800000*%
%ADD17C,4.000000*%
%ADD18C,3.987800*%
%ADD19C,1.750000*%
%ADD20C,2.300000*%
%ADD21FreePoly0,180.000000*%
%ADD22C,4.400000*%
G04 APERTURE END LIST*
D10*
%TO.C,J1*%
X247411875Y-45827750D03*
X247411875Y-48367750D03*
X247411875Y-50907750D03*
X247411875Y-53447750D03*
D11*
X247411875Y-55987750D03*
D10*
X247411875Y-58527750D03*
X247411875Y-61067750D03*
D12*
X234711875Y-63861750D03*
X232806875Y-63861750D03*
D10*
X229631875Y-61067750D03*
X229631875Y-58527750D03*
X229631875Y-55987750D03*
X229631875Y-53447750D03*
%TD*%
D13*
%TO.C,J5*%
X241821785Y-65894964D03*
D14*
X245821785Y-65894964D03*
%TD*%
D13*
%TO.C,J4*%
X86518750Y-78168749D03*
D14*
X86518750Y-82168749D03*
%TD*%
D15*
%TO.C,D15*%
X87312500Y-72072500D03*
D16*
X87312500Y-64452500D03*
%TD*%
D15*
%TO.C,D14*%
X68262500Y-72072500D03*
D16*
X68262500Y-64452500D03*
%TD*%
D15*
%TO.C,D13*%
X46831250Y-72072500D03*
D16*
X46831250Y-64452500D03*
%TD*%
D17*
%TO.C,S5*%
X87312500Y-116522500D03*
X201612500Y-116522500D03*
D18*
X87312500Y-101282500D03*
X201612500Y-101282500D03*
%TD*%
D19*
%TO.C,SW17*%
X110807500Y-71437500D03*
D18*
X115887500Y-71437500D03*
D19*
X120967500Y-71437500D03*
D20*
X112077500Y-68897500D03*
X118427500Y-66357500D03*
%TD*%
D19*
%TO.C,SW49*%
X110807500Y-109537500D03*
D18*
X115887500Y-109537500D03*
D19*
X120967500Y-109537500D03*
D20*
X112077500Y-106997500D03*
X118427500Y-104457500D03*
%TD*%
D17*
%TO.C,S4*%
X258762500Y-116522500D03*
D18*
X258762500Y-101282500D03*
D17*
X220662500Y-116522500D03*
D18*
X220662500Y-101282500D03*
%TD*%
D19*
%TO.C,SW8*%
X163195000Y-52387500D03*
D18*
X168275000Y-52387500D03*
D19*
X173355000Y-52387500D03*
D20*
X164465000Y-49847500D03*
X170815000Y-47307500D03*
%TD*%
D19*
%TO.C,SW15*%
X72707500Y-71437500D03*
D18*
X77787500Y-71437500D03*
D19*
X82867500Y-71437500D03*
D20*
X73977500Y-68897500D03*
X80327500Y-66357500D03*
%TD*%
D19*
%TO.C,SW35*%
X234632500Y-90487500D03*
D18*
X239712500Y-90487500D03*
D19*
X244792500Y-90487500D03*
D20*
X235902500Y-87947500D03*
X242252500Y-85407500D03*
%TD*%
D19*
%TO.C,SW37*%
X46513750Y-109537500D03*
D18*
X51593750Y-109537500D03*
D19*
X56673750Y-109537500D03*
D20*
X47783750Y-106997500D03*
X54133750Y-104457500D03*
%TD*%
D17*
%TO.C,S1*%
X63500000Y-116522500D03*
D18*
X63500000Y-101282500D03*
D17*
X39687500Y-116522500D03*
D18*
X39687500Y-101282500D03*
%TD*%
D21*
%TO.C,SW12*%
X249078750Y-57467500D03*
D20*
X255428750Y-54927500D03*
D18*
X251618750Y-52387500D03*
D19*
X256698750Y-52387500D03*
%TD*%
%TO.C,SW9*%
X182245000Y-52387500D03*
D18*
X187325000Y-52387500D03*
D19*
X192405000Y-52387500D03*
D20*
X183515000Y-49847500D03*
X189865000Y-47307500D03*
%TD*%
D19*
%TO.C,SW46*%
X248920000Y-109537500D03*
D18*
X254000000Y-109537500D03*
D19*
X259080000Y-109537500D03*
D20*
X250190000Y-106997500D03*
X256540000Y-104457500D03*
%TD*%
D19*
%TO.C,SW40*%
X156051250Y-109537500D03*
D18*
X161131250Y-109537500D03*
D19*
X166211250Y-109537500D03*
D20*
X157321250Y-106997500D03*
X163671250Y-104457500D03*
%TD*%
D19*
%TO.C,SW13*%
X32226250Y-71437500D03*
D18*
X37306250Y-71437500D03*
D19*
X42386250Y-71437500D03*
D20*
X33496250Y-68897500D03*
X39846250Y-66357500D03*
%TD*%
D19*
%TO.C,SW6*%
X125095000Y-52387500D03*
D18*
X130175000Y-52387500D03*
D19*
X135255000Y-52387500D03*
D20*
X126365000Y-49847500D03*
X132715000Y-47307500D03*
%TD*%
D19*
%TO.C,SW19*%
X148907500Y-71437500D03*
D18*
X153987500Y-71437500D03*
D19*
X159067500Y-71437500D03*
D20*
X150177500Y-68897500D03*
X156527500Y-66357500D03*
%TD*%
D19*
%TO.C,SW20*%
X167957500Y-71437500D03*
D18*
X173037500Y-71437500D03*
D19*
X178117500Y-71437500D03*
D20*
X169227500Y-68897500D03*
X175577500Y-66357500D03*
%TD*%
D19*
%TO.C,SW22*%
X206057500Y-71437500D03*
D18*
X211137500Y-71437500D03*
D19*
X216217500Y-71437500D03*
D20*
X207327500Y-68897500D03*
X213677500Y-66357500D03*
%TD*%
D19*
%TO.C,SW25*%
X47148750Y-90487500D03*
D18*
X42068750Y-90487500D03*
D19*
X36988750Y-90487500D03*
D20*
X45878750Y-93027500D03*
X39528750Y-95567500D03*
%TD*%
D19*
%TO.C,SW28*%
X101282500Y-90487500D03*
D18*
X106362500Y-90487500D03*
D19*
X111442500Y-90487500D03*
D20*
X102552500Y-87947500D03*
X108902500Y-85407500D03*
%TD*%
D19*
%TO.C,SW47*%
X215583105Y-109537500D03*
D18*
X220663105Y-109537500D03*
D19*
X225743105Y-109537500D03*
D20*
X216853105Y-106997500D03*
X223203105Y-104457500D03*
%TD*%
D19*
%TO.C,SW27*%
X82232500Y-90487500D03*
D18*
X87312500Y-90487500D03*
D19*
X92392500Y-90487500D03*
D20*
X83502500Y-87947500D03*
X89852500Y-85407500D03*
%TD*%
D19*
%TO.C,SW3*%
X67945000Y-52387500D03*
D18*
X73025000Y-52387500D03*
D19*
X78105000Y-52387500D03*
D20*
X69215000Y-49847500D03*
X75565000Y-47307500D03*
%TD*%
D19*
%TO.C,SW16*%
X91757500Y-71437500D03*
D18*
X96837500Y-71437500D03*
D19*
X101917500Y-71437500D03*
D20*
X93027500Y-68897500D03*
X99377500Y-66357500D03*
%TD*%
D19*
%TO.C,SW39*%
X122713750Y-109537500D03*
D18*
X127793750Y-109537500D03*
D19*
X132873750Y-109537500D03*
D20*
X123983750Y-106997500D03*
X130333750Y-104457500D03*
%TD*%
D19*
%TO.C,SW38*%
X94138750Y-109537500D03*
D18*
X99218750Y-109537500D03*
D19*
X104298750Y-109537500D03*
D20*
X95408750Y-106997500D03*
X101758750Y-104457500D03*
%TD*%
D19*
%TO.C,SW30*%
X139382500Y-90487500D03*
D18*
X144462500Y-90487500D03*
D19*
X149542500Y-90487500D03*
D20*
X140652500Y-87947500D03*
X147002500Y-85407500D03*
%TD*%
D19*
%TO.C,SW50*%
X167957500Y-109537500D03*
D18*
X173037500Y-109537500D03*
D19*
X178117500Y-109537500D03*
D20*
X169227500Y-106997500D03*
X175577500Y-104457500D03*
%TD*%
D17*
%TO.C,S2*%
X134937500Y-116522500D03*
D18*
X134937500Y-101282500D03*
D17*
X96837500Y-116522500D03*
D18*
X96837500Y-101282500D03*
%TD*%
D19*
%TO.C,SW1*%
X29845000Y-52387500D03*
D18*
X34925000Y-52387500D03*
D19*
X40005000Y-52387500D03*
D20*
X31115000Y-49847500D03*
X37465000Y-47307500D03*
%TD*%
D19*
%TO.C,SW4*%
X86995000Y-52387500D03*
D18*
X92075000Y-52387500D03*
D19*
X97155000Y-52387500D03*
D20*
X88265000Y-49847500D03*
X94615000Y-47307500D03*
%TD*%
D19*
%TO.C,SW24*%
X248920000Y-71437500D03*
D18*
X254000000Y-71437500D03*
D19*
X259080000Y-71437500D03*
D20*
X250190000Y-68897500D03*
X256540000Y-66357500D03*
%TD*%
D19*
%TO.C,SW2*%
X48895000Y-52387500D03*
D18*
X53975000Y-52387500D03*
D19*
X59055000Y-52387500D03*
D20*
X50165000Y-49847500D03*
X56515000Y-47307500D03*
%TD*%
D19*
%TO.C,SW7*%
X144145000Y-52387500D03*
D18*
X149225000Y-52387500D03*
D19*
X154305000Y-52387500D03*
D20*
X145415000Y-49847500D03*
X151765000Y-47307500D03*
%TD*%
D19*
%TO.C,SW51*%
X139382500Y-109537500D03*
D18*
X144462500Y-109537500D03*
D19*
X149542500Y-109537500D03*
D20*
X140652500Y-106997500D03*
X147002500Y-104457500D03*
%TD*%
D19*
%TO.C,SW29*%
X120332500Y-90487500D03*
D18*
X125412500Y-90487500D03*
D19*
X130492500Y-90487500D03*
D20*
X121602500Y-87947500D03*
X127952500Y-85407500D03*
%TD*%
D19*
%TO.C,SW44*%
X60801250Y-109537500D03*
D18*
X65881250Y-109537500D03*
D19*
X70961250Y-109537500D03*
D20*
X62071250Y-106997500D03*
X68421250Y-104457500D03*
%TD*%
D19*
%TO.C,SW48*%
X253682500Y-109537500D03*
D18*
X258762500Y-109537500D03*
D19*
X263842500Y-109537500D03*
D20*
X254952500Y-106997500D03*
X261302500Y-104457500D03*
%TD*%
D19*
%TO.C,SW42*%
X234632500Y-109537500D03*
D18*
X239712500Y-109537500D03*
D19*
X244792500Y-109537500D03*
D20*
X235902500Y-106997500D03*
X242252500Y-104457500D03*
%TD*%
D19*
%TO.C,SW45*%
X220345000Y-109537500D03*
D18*
X225425000Y-109537500D03*
D19*
X230505000Y-109537500D03*
D20*
X221615000Y-106997500D03*
X227965000Y-104457500D03*
%TD*%
D19*
%TO.C,SW10*%
X201295000Y-52387500D03*
D18*
X206375000Y-52387500D03*
D19*
X211455000Y-52387500D03*
D20*
X202565000Y-49847500D03*
X208915000Y-47307500D03*
%TD*%
D19*
%TO.C,SW32*%
X177482500Y-90487500D03*
D18*
X182562500Y-90487500D03*
D19*
X187642500Y-90487500D03*
D20*
X178752500Y-87947500D03*
X185102500Y-85407500D03*
%TD*%
D19*
%TO.C,SW5*%
X106045000Y-52387500D03*
D18*
X111125000Y-52387500D03*
D19*
X116205000Y-52387500D03*
D20*
X107315000Y-49847500D03*
X113665000Y-47307500D03*
%TD*%
D19*
%TO.C,SW11*%
X220345000Y-52387500D03*
D18*
X225425000Y-52387500D03*
D20*
X221615000Y-49847500D03*
X227965000Y-47307500D03*
%TD*%
D19*
%TO.C,SW34*%
X215582500Y-90487500D03*
D18*
X220662500Y-90487500D03*
D19*
X225742500Y-90487500D03*
D20*
X216852500Y-87947500D03*
X223202500Y-85407500D03*
%TD*%
D19*
%TO.C,SW31*%
X158432500Y-90487500D03*
D18*
X163512500Y-90487500D03*
D19*
X168592500Y-90487500D03*
D20*
X159702500Y-87947500D03*
X166052500Y-85407500D03*
%TD*%
D19*
%TO.C,SW43*%
X34608105Y-109537500D03*
D18*
X39688105Y-109537500D03*
D19*
X44768105Y-109537500D03*
D20*
X35878105Y-106997500D03*
X42228105Y-104457500D03*
%TD*%
D19*
%TO.C,SW26*%
X73342500Y-90487500D03*
D18*
X68262500Y-90487500D03*
D19*
X63182500Y-90487500D03*
D20*
X72072500Y-93027500D03*
X65722500Y-95567500D03*
%TD*%
D19*
%TO.C,SW23*%
X225107500Y-71437500D03*
D18*
X230187500Y-71437500D03*
D19*
X235267500Y-71437500D03*
D20*
X226377500Y-68897500D03*
X232727500Y-66357500D03*
%TD*%
D19*
%TO.C,SW14*%
X53657500Y-71437500D03*
D18*
X58737500Y-71437500D03*
D19*
X63817500Y-71437500D03*
D20*
X54927500Y-68897500D03*
X61277500Y-66357500D03*
%TD*%
D19*
%TO.C,SW33*%
X196532500Y-90487500D03*
D18*
X201612500Y-90487500D03*
D19*
X206692500Y-90487500D03*
D20*
X197802500Y-87947500D03*
X204152500Y-85407500D03*
%TD*%
D19*
%TO.C,SW36*%
X253682500Y-90487500D03*
D18*
X258762500Y-90487500D03*
D19*
X263842500Y-90487500D03*
D20*
X254952500Y-87947500D03*
X261302500Y-85407500D03*
%TD*%
D22*
%TO.C,H1*%
X55124875Y-96686500D03*
X56724875Y-61912500D03*
X132924875Y-61912500D03*
X163574875Y-80962500D03*
X207724875Y-108421500D03*
%TD*%
D19*
%TO.C,SW21*%
X187007500Y-71437500D03*
D18*
X192087500Y-71437500D03*
D19*
X197167500Y-71437500D03*
D20*
X188277500Y-68897500D03*
X194627500Y-66357500D03*
%TD*%
D19*
%TO.C,SW18*%
X129857500Y-71437500D03*
D18*
X134937500Y-71437500D03*
D19*
X140017500Y-71437500D03*
D20*
X131127500Y-68897500D03*
X137477500Y-66357500D03*
%TD*%
D17*
%TO.C,S3*%
X192087500Y-116522500D03*
D18*
X192087500Y-101282500D03*
D17*
X153987500Y-116522500D03*
D18*
X153987500Y-101282500D03*
%TD*%
D19*
%TO.C,SW41*%
X184626250Y-109537500D03*
D18*
X189706250Y-109537500D03*
D19*
X194786250Y-109537500D03*
D20*
X185896250Y-106997500D03*
X192246250Y-104457500D03*
%TD*%
D15*
%TO.C,D12*%
X261143750Y-57467499D03*
D16*
X261143750Y-47307499D03*
%TD*%
D15*
%TO.C,D11*%
X217500000Y-57467498D03*
D16*
X217500000Y-47307498D03*
%TD*%
D15*
%TO.C,D34*%
X230187500Y-95567499D03*
D16*
X230187500Y-85407499D03*
%TD*%
D15*
%TO.C,D28*%
X115887500Y-95567499D03*
D16*
X115887500Y-85407499D03*
%TD*%
D15*
%TO.C,D7*%
X158750000Y-57467499D03*
D16*
X158750000Y-47307499D03*
%TD*%
D15*
%TO.C,D23*%
X238918750Y-76517499D03*
D16*
X238918750Y-66357499D03*
%TD*%
D15*
%TO.C,D33*%
X211137500Y-95567499D03*
D16*
X211137500Y-85407499D03*
%TD*%
D15*
%TO.C,D42*%
X235267500Y-100012500D03*
D16*
X225107500Y-100012500D03*
%TD*%
D15*
%TO.C,D5*%
X120650000Y-57467499D03*
D16*
X120650000Y-47307499D03*
%TD*%
D15*
%TO.C,D40*%
X254317500Y-100012500D03*
D16*
X244157500Y-100012500D03*
%TD*%
D15*
%TO.C,D36*%
X263842499Y-80962500D03*
D16*
X253682499Y-80962500D03*
%TD*%
D15*
%TO.C,D8*%
X177800000Y-57467499D03*
D16*
X177800000Y-47307499D03*
%TD*%
D15*
%TO.C,D18*%
X144462500Y-76517500D03*
D16*
X144462500Y-66357500D03*
%TD*%
D15*
%TO.C,D1*%
X44450000Y-57467500D03*
D16*
X44450000Y-47307500D03*
%TD*%
D15*
%TO.C,D6*%
X139700000Y-57467499D03*
D16*
X139700000Y-47307499D03*
%TD*%
D15*
%TO.C,D24*%
X263525000Y-76517499D03*
D16*
X263525000Y-66357499D03*
%TD*%
D15*
%TO.C,D26*%
X81756250Y-114617499D03*
D16*
X81756250Y-104457499D03*
%TD*%
D15*
%TO.C,D17*%
X125412500Y-76517499D03*
D16*
X125412500Y-66357499D03*
%TD*%
D15*
%TO.C,D4*%
X101600000Y-57467499D03*
D16*
X101600000Y-47307499D03*
%TD*%
D15*
%TO.C,D3*%
X82550000Y-57467499D03*
D16*
X82550000Y-47307499D03*
%TD*%
%TO.C,D45*%
X163195000Y-100012500D03*
%TD*%
D15*
%TO.C,D21*%
X201612500Y-76517499D03*
D16*
X201612500Y-66357499D03*
%TD*%
D15*
%TO.C,D9*%
X196850000Y-57467499D03*
D16*
X196850000Y-47307499D03*
%TD*%
D15*
%TO.C,D32*%
X192087500Y-95567500D03*
D16*
X192087500Y-85407500D03*
%TD*%
D15*
%TO.C,D31*%
X173037500Y-95567499D03*
D16*
X173037500Y-85407499D03*
%TD*%
D15*
%TO.C,D20*%
X182562500Y-76517499D03*
D16*
X182562500Y-66357499D03*
%TD*%
D15*
%TO.C,D19*%
X163512500Y-76517499D03*
D16*
X163512500Y-66357499D03*
%TD*%
D15*
%TO.C,D35*%
X249237500Y-95567499D03*
D16*
X249237500Y-85407499D03*
%TD*%
D15*
%TO.C,D29*%
X134937500Y-95567499D03*
D16*
X134937500Y-85407499D03*
%TD*%
D15*
%TO.C,D39*%
X149542499Y-100012500D03*
D16*
X139382499Y-100012500D03*
%TD*%
D15*
%TO.C,D25*%
X78105000Y-100012500D03*
D16*
X67945000Y-100012500D03*
%TD*%
D15*
%TO.C,D30*%
X153987500Y-95567499D03*
D16*
X153987500Y-85407499D03*
%TD*%
D15*
%TO.C,D38*%
X120967499Y-100012500D03*
D16*
X110807499Y-100012500D03*
%TD*%
D15*
%TO.C,D2*%
X63500000Y-57467499D03*
D16*
X63500000Y-47307499D03*
%TD*%
%TO.C,D44*%
X165576250Y-100012500D03*
%TD*%
D15*
%TO.C,D37*%
X75406250Y-114617499D03*
D16*
X75406250Y-104457499D03*
%TD*%
D15*
%TO.C,D22*%
X220662500Y-76517499D03*
D16*
X220662500Y-66357499D03*
%TD*%
D15*
%TO.C,D10*%
X214312500Y-57467500D03*
D16*
X214312500Y-47307500D03*
%TD*%
D15*
%TO.C,D27*%
X96837500Y-95567499D03*
D16*
X96837500Y-85407499D03*
%TD*%
D15*
%TO.C,D16*%
X106362500Y-76517499D03*
D16*
X106362500Y-66357499D03*
%TD*%
D15*
%TO.C,D41*%
X216217500Y-100012500D03*
D16*
X206057500Y-100012500D03*
%TD*%
D15*
%TO.C,D43*%
X178117500Y-100012500D03*
D16*
X167957500Y-100012500D03*
%TD*%
M02*
