M48
; DRILL file {KiCad 7.0.2} date Tue May 23 19:20:28 2023
; FORMAT={-:-/ absolute / inch / decimal}
; #@! TF.CreationDate,2023-05-23T19:20:28-05:00
; #@! TF.GenerationSoftware,Kicad,Pcbnew,7.0.2
; #@! TF.FileFunction,Plated,1,2,PTH
FMAT,2
INCH
; #@! TA.AperFunction,Plated,PTH,ViaDrill
T1C0.0157
; #@! TA.AperFunction,Plated,PTH,ViaDrill
T2C0.0197
; #@! TA.AperFunction,Plated,PTH,ComponentDrill
T3C0.0315
; #@! TA.AperFunction,Plated,PTH,ComponentDrill
T4C0.0354
; #@! TA.AperFunction,Plated,PTH,ComponentDrill
T5C0.0394
; #@! TA.AperFunction,Plated,PTH,ComponentDrill
T6C0.0600
; #@! TA.AperFunction,Plated,PTH,ComponentDrill
T7C0.0866
; #@! TA.AperFunction,Plated,PTH,ComponentDrill
T8C0.1200
%
G90
G05
T1
X9.5625Y-3.1875
X9.6416Y-3.25
X10.4375Y-3.8125
T2
X3.4375Y-3.4062
X5.5625Y-2.4688
X5.9688Y-2.9375
X6.1562Y-4.4375
X6.6875Y-2.9375
X7.125Y-3.3438
X7.1562Y-3.1562
X7.2812Y-3.0625
X8.8438Y-2.4688
X8.8438Y-2.9375
X9.375Y-2.7812
X9.7188Y-3.0119
X10.375Y-2.3438
T3
X3.4062Y-3.0775
X3.4062Y-3.235
X9.5205Y-2.5943
X9.678Y-2.5943
T4
X1.75Y-1.8625
X1.75Y-2.2625
X1.8438Y-2.5375
X1.8438Y-2.8375
X2.5Y-1.8625
X2.5Y-2.2625
X2.675Y-3.9375
X2.6875Y-2.5375
X2.6875Y-2.8375
X2.9688Y-4.1125
X2.9688Y-4.5125
X3.075Y-3.9375
X3.2188Y-4.1125
X3.2188Y-4.5125
X3.25Y-1.8625
X3.25Y-2.2625
X3.4375Y-2.5375
X3.4375Y-2.8375
X3.8125Y-3.3625
X3.8125Y-3.7625
X4.0Y-1.8625
X4.0Y-2.2625
X4.1875Y-2.6125
X4.1875Y-3.0125
X4.3625Y-3.9375
X4.5625Y-3.3625
X4.5625Y-3.7625
X4.75Y-1.8625
X4.75Y-2.2625
X4.7625Y-3.9375
X4.9375Y-2.6125
X4.9375Y-3.0125
X5.3125Y-3.3625
X5.3125Y-3.7625
X5.4875Y-3.9375
X5.5Y-1.8625
X5.5Y-2.2625
X5.6875Y-2.6125
X5.6875Y-3.0125
X5.8875Y-3.9375
X6.0625Y-3.3625
X6.0625Y-3.7625
X6.25Y-1.8625
X6.25Y-2.2625
X6.425Y-3.9375
X6.4375Y-2.6125
X6.4375Y-3.0125
X6.5187Y-3.9375
X6.6125Y-3.9375
X6.8125Y-3.3625
X6.8125Y-3.7625
X7.0Y-1.8625
X7.0Y-2.2625
X7.0125Y-3.9375
X7.1875Y-2.6125
X7.1875Y-3.0125
X7.5625Y-3.3625
X7.5625Y-3.7625
X7.75Y-1.8625
X7.75Y-2.2625
X7.9375Y-2.6125
X7.9375Y-3.0125
X8.1125Y-3.9375
X8.3125Y-3.3625
X8.3125Y-3.7625
X8.4375Y-1.8625
X8.4375Y-2.2625
X8.5125Y-3.9375
X8.563Y-1.8625
X8.563Y-2.2625
X8.6875Y-2.6125
X8.6875Y-3.0125
X8.8625Y-3.9375
X9.0625Y-3.3625
X9.0625Y-3.7625
X9.2625Y-3.9375
X9.4062Y-2.6125
X9.4062Y-3.0125
X9.6125Y-3.9375
X9.8125Y-3.3625
X9.8125Y-3.7625
X9.9875Y-3.1875
X10.0125Y-3.9375
X10.2812Y-1.8625
X10.2812Y-2.2625
X10.375Y-2.6125
X10.375Y-3.0125
X10.3875Y-3.1875
T5
X9.0406Y-2.1042
X9.0406Y-2.2042
X9.0406Y-2.3042
X9.0406Y-2.4042
X9.7406Y-1.8042
X9.7406Y-1.9042
X9.7406Y-2.0042
X9.7406Y-2.1042
X9.7406Y-2.2042
X9.7406Y-2.3042
X9.7406Y-2.4042
T6
X1.225Y-1.9625
X1.3187Y-2.7125
X1.4125Y-4.2125
X1.475Y-1.8625
X1.5562Y-3.7625
X1.5687Y-2.6125
X1.6625Y-4.1125
X1.8062Y-3.6625
X1.8812Y-4.2125
X1.975Y-1.9625
X2.1313Y-4.1125
X2.1625Y-2.7125
X2.225Y-1.8625
X2.4125Y-2.6125
X2.4438Y-4.2125
X2.5875Y-3.7625
X2.6938Y-4.1125
X2.725Y-1.9625
X2.8375Y-3.6625
X2.9125Y-2.7125
X2.975Y-1.8625
X3.1625Y-2.6125
X3.2875Y-3.4625
X3.475Y-1.9625
X3.5375Y-3.3625
X3.6625Y-2.7125
X3.725Y-1.8625
X3.7563Y-4.2125
X3.9125Y-2.6125
X4.0062Y-4.1125
X4.0375Y-3.4625
X4.225Y-1.9625
X4.2875Y-3.3625
X4.4125Y-2.7125
X4.4125Y-4.2125
X4.475Y-1.8625
X4.6625Y-2.6125
X4.6625Y-4.1125
X4.7875Y-3.4625
X4.8812Y-4.2125
X4.975Y-1.9625
X5.0375Y-3.3625
X5.1312Y-4.1125
X5.1625Y-2.7125
X5.225Y-1.8625
X5.4125Y-2.6125
X5.5375Y-3.4625
X5.5375Y-4.2125
X5.725Y-1.9625
X5.7875Y-3.3625
X5.7875Y-4.1125
X5.9125Y-2.7125
X5.975Y-1.8625
X6.1625Y-2.6125
X6.1937Y-4.2125
X6.2875Y-3.4625
X6.4437Y-4.1125
X6.475Y-1.9625
X6.5375Y-3.3625
X6.6625Y-2.7125
X6.6625Y-4.2125
X6.725Y-1.8625
X6.9125Y-2.6125
X6.9125Y-4.1125
X7.0375Y-3.4625
X7.225Y-1.9625
X7.2875Y-3.3625
X7.3187Y-4.2125
X7.4125Y-2.7125
X7.475Y-1.8625
X7.5687Y-4.1125
X7.6625Y-2.6125
X7.7875Y-3.4625
X7.975Y-1.9625
X8.0375Y-3.3625
X8.1625Y-2.7125
X8.225Y-1.8625
X8.4125Y-2.6125
X8.5375Y-3.4625
X8.5375Y-4.2125
X8.725Y-1.9625
X8.725Y-4.2125
X8.7875Y-3.3625
X8.7875Y-4.1125
X8.9125Y-2.7125
X8.975Y-1.8625
X8.975Y-4.1125
X9.1625Y-2.6125
X9.2875Y-3.4625
X9.2875Y-4.2125
X9.5375Y-3.3625
X9.5375Y-4.1125
X9.8063Y-2.2625
X9.85Y-2.7125
X9.85Y-4.2125
X10.0375Y-3.4625
X10.0375Y-4.2125
X10.0563Y-2.1625
X10.1Y-2.6125
X10.1Y-4.1125
X10.2875Y-3.3625
X10.2875Y-4.1125
T7
X2.1703Y-3.8066
X2.2333Y-2.4375
X5.2333Y-2.4375
X6.44Y-3.1875
X8.1781Y-4.2686
T8
X1.5625Y-4.5875
X2.5Y-4.5875
X3.4375Y-4.5875
X3.8125Y-4.5875
X5.3125Y-4.5875
X6.0625Y-4.5875
X7.5625Y-4.5875
X7.9375Y-4.5875
X8.6875Y-4.5875
X10.1875Y-4.5875
T5
G00X9.1656Y-2.5044
M15
G01X9.1656Y-2.5241
M16
G05
G00X9.2406Y-2.5044
M15
G01X9.2406Y-2.5241
M16
G05
T0
M30
