%TF.GenerationSoftware,KiCad,Pcbnew,7.0.1*%
%TF.CreationDate,2023-07-24T13:20:30-05:00*%
%TF.ProjectId,Asymptote_Campitrayhulliander_Plate,4173796d-7074-46f7-9465-5f43616d7069,rev?*%
%TF.SameCoordinates,Original*%
%TF.FileFunction,Legend,Bot*%
%TF.FilePolarity,Positive*%
%FSLAX46Y46*%
G04 Gerber Fmt 4.6, Leading zero omitted, Abs format (unit mm)*
G04 Created by KiCad (PCBNEW 7.0.1) date 2023-07-24 13:20:30*
%MOMM*%
%LPD*%
G01*
G04 APERTURE LIST*
%ADD10C,0.150000*%
G04 APERTURE END LIST*
D10*
X207294942Y-102715120D02*
X207294942Y-103429405D01*
X207294942Y-103429405D02*
X207342561Y-103572262D01*
X207342561Y-103572262D02*
X207437799Y-103667501D01*
X207437799Y-103667501D02*
X207580656Y-103715120D01*
X207580656Y-103715120D02*
X207675894Y-103715120D01*
X206342561Y-103715120D02*
X206818751Y-103715120D01*
X206818751Y-103715120D02*
X206818751Y-102715120D01*
X205437799Y-103619881D02*
X205485418Y-103667501D01*
X205485418Y-103667501D02*
X205628275Y-103715120D01*
X205628275Y-103715120D02*
X205723513Y-103715120D01*
X205723513Y-103715120D02*
X205866370Y-103667501D01*
X205866370Y-103667501D02*
X205961608Y-103572262D01*
X205961608Y-103572262D02*
X206009227Y-103477024D01*
X206009227Y-103477024D02*
X206056846Y-103286548D01*
X206056846Y-103286548D02*
X206056846Y-103143691D01*
X206056846Y-103143691D02*
X206009227Y-102953215D01*
X206009227Y-102953215D02*
X205961608Y-102857977D01*
X205961608Y-102857977D02*
X205866370Y-102762739D01*
X205866370Y-102762739D02*
X205723513Y-102715120D01*
X205723513Y-102715120D02*
X205628275Y-102715120D01*
X205628275Y-102715120D02*
X205485418Y-102762739D01*
X205485418Y-102762739D02*
X205437799Y-102810358D01*
X204723513Y-102715120D02*
X204723513Y-103429405D01*
X204723513Y-103429405D02*
X204771132Y-103572262D01*
X204771132Y-103572262D02*
X204866370Y-103667501D01*
X204866370Y-103667501D02*
X205009227Y-103715120D01*
X205009227Y-103715120D02*
X205104465Y-103715120D01*
X203771132Y-103715120D02*
X204247322Y-103715120D01*
X204247322Y-103715120D02*
X204247322Y-102715120D01*
X202866370Y-103619881D02*
X202913989Y-103667501D01*
X202913989Y-103667501D02*
X203056846Y-103715120D01*
X203056846Y-103715120D02*
X203152084Y-103715120D01*
X203152084Y-103715120D02*
X203294941Y-103667501D01*
X203294941Y-103667501D02*
X203390179Y-103572262D01*
X203390179Y-103572262D02*
X203437798Y-103477024D01*
X203437798Y-103477024D02*
X203485417Y-103286548D01*
X203485417Y-103286548D02*
X203485417Y-103143691D01*
X203485417Y-103143691D02*
X203437798Y-102953215D01*
X203437798Y-102953215D02*
X203390179Y-102857977D01*
X203390179Y-102857977D02*
X203294941Y-102762739D01*
X203294941Y-102762739D02*
X203152084Y-102715120D01*
X203152084Y-102715120D02*
X203056846Y-102715120D01*
X203056846Y-102715120D02*
X202913989Y-102762739D01*
X202913989Y-102762739D02*
X202866370Y-102810358D01*
X202152084Y-102715120D02*
X202152084Y-103429405D01*
X202152084Y-103429405D02*
X202199703Y-103572262D01*
X202199703Y-103572262D02*
X202294941Y-103667501D01*
X202294941Y-103667501D02*
X202437798Y-103715120D01*
X202437798Y-103715120D02*
X202533036Y-103715120D01*
X201199703Y-103715120D02*
X201675893Y-103715120D01*
X201675893Y-103715120D02*
X201675893Y-102715120D01*
X200294941Y-103619881D02*
X200342560Y-103667501D01*
X200342560Y-103667501D02*
X200485417Y-103715120D01*
X200485417Y-103715120D02*
X200580655Y-103715120D01*
X200580655Y-103715120D02*
X200723512Y-103667501D01*
X200723512Y-103667501D02*
X200818750Y-103572262D01*
X200818750Y-103572262D02*
X200866369Y-103477024D01*
X200866369Y-103477024D02*
X200913988Y-103286548D01*
X200913988Y-103286548D02*
X200913988Y-103143691D01*
X200913988Y-103143691D02*
X200866369Y-102953215D01*
X200866369Y-102953215D02*
X200818750Y-102857977D01*
X200818750Y-102857977D02*
X200723512Y-102762739D01*
X200723512Y-102762739D02*
X200580655Y-102715120D01*
X200580655Y-102715120D02*
X200485417Y-102715120D01*
X200485417Y-102715120D02*
X200342560Y-102762739D01*
X200342560Y-102762739D02*
X200294941Y-102810358D01*
X199580655Y-102715120D02*
X199580655Y-103429405D01*
X199580655Y-103429405D02*
X199628274Y-103572262D01*
X199628274Y-103572262D02*
X199723512Y-103667501D01*
X199723512Y-103667501D02*
X199866369Y-103715120D01*
X199866369Y-103715120D02*
X199961607Y-103715120D01*
X198628274Y-103715120D02*
X199104464Y-103715120D01*
X199104464Y-103715120D02*
X199104464Y-102715120D01*
X197723512Y-103619881D02*
X197771131Y-103667501D01*
X197771131Y-103667501D02*
X197913988Y-103715120D01*
X197913988Y-103715120D02*
X198009226Y-103715120D01*
X198009226Y-103715120D02*
X198152083Y-103667501D01*
X198152083Y-103667501D02*
X198247321Y-103572262D01*
X198247321Y-103572262D02*
X198294940Y-103477024D01*
X198294940Y-103477024D02*
X198342559Y-103286548D01*
X198342559Y-103286548D02*
X198342559Y-103143691D01*
X198342559Y-103143691D02*
X198294940Y-102953215D01*
X198294940Y-102953215D02*
X198247321Y-102857977D01*
X198247321Y-102857977D02*
X198152083Y-102762739D01*
X198152083Y-102762739D02*
X198009226Y-102715120D01*
X198009226Y-102715120D02*
X197913988Y-102715120D01*
X197913988Y-102715120D02*
X197771131Y-102762739D01*
X197771131Y-102762739D02*
X197723512Y-102810358D01*
M02*
