%TF.GenerationSoftware,KiCad,Pcbnew,7.0.1*%
%TF.CreationDate,2023-07-24T13:20:30-05:00*%
%TF.ProjectId,Asymptote_Campitrayhulliander_Plate,4173796d-7074-46f7-9465-5f43616d7069,rev?*%
%TF.SameCoordinates,Original*%
%TF.FileFunction,Soldermask,Top*%
%TF.FilePolarity,Negative*%
%FSLAX46Y46*%
G04 Gerber Fmt 4.6, Leading zero omitted, Abs format (unit mm)*
G04 Created by KiCad (PCBNEW 7.0.1) date 2023-07-24 13:20:30*
%MOMM*%
%LPD*%
G01*
G04 APERTURE LIST*
%ADD10C,0.750000*%
%ADD11C,5.500000*%
%ADD12C,0.500000*%
%ADD13C,2.500000*%
G04 APERTURE END LIST*
D10*
%TO.C,REF\u002A\u002A*%
X130190002Y-124225001D03*
X131460002Y-124225001D03*
X132730002Y-124225001D03*
%TD*%
%TO.C,REF\u002A\u002A*%
X249570002Y-124225001D03*
X250840002Y-124225001D03*
X252110002Y-124225001D03*
X253380002Y-124225001D03*
%TD*%
D11*
%TO.C,*%
X57487502Y-118744151D03*
%TD*%
D12*
%TO.C,REF\u002A\u002A*%
X269866969Y-137633476D03*
X269866969Y-136733476D03*
X269866969Y-135783476D03*
X269716969Y-138533476D03*
X269516969Y-139433476D03*
%TD*%
D13*
%TO.C,*%
X260025128Y-144393750D03*
%TD*%
%TO.C,*%
X260025128Y-144393750D03*
%TD*%
D11*
%TO.C,*%
X104387502Y-130294151D03*
%TD*%
D10*
%TO.C,REF\u002A\u002A*%
X49545002Y-124225001D03*
X50815002Y-124225001D03*
X52085002Y-124225001D03*
%TD*%
D13*
%TO.C,*%
X38137628Y-144393750D03*
%TD*%
%TO.C,*%
X260024872Y-61693750D03*
%TD*%
D11*
%TO.C,*%
X165724795Y-103094252D03*
%TD*%
D13*
%TO.C,*%
X38137628Y-144393750D03*
%TD*%
D12*
%TO.C,REF\u002A\u002A*%
X42812939Y-65170467D03*
X42012939Y-65170467D03*
X41212939Y-65170467D03*
X40412939Y-65170467D03*
X39612939Y-65170467D03*
X38812939Y-65170467D03*
X38012939Y-65170467D03*
X37212939Y-65170467D03*
X36412939Y-65170467D03*
X35612939Y-65170467D03*
X34812939Y-65170467D03*
X34012939Y-65170467D03*
X33212939Y-65170467D03*
X32412939Y-65170467D03*
X31612939Y-65170467D03*
X30812939Y-65170467D03*
%TD*%
D11*
%TO.C,*%
X59037500Y-83992988D03*
%TD*%
D10*
%TO.C,REF\u002A\u002A*%
X230520002Y-124225001D03*
X231790002Y-124225001D03*
X233060002Y-124225001D03*
X234330002Y-124225001D03*
%TD*%
D13*
%TO.C,*%
X38137372Y-61693750D03*
%TD*%
D10*
%TO.C,REF\u002A\u002A*%
X57958752Y-124225001D03*
X59228752Y-124225001D03*
X60498752Y-124225001D03*
%TD*%
D11*
%TO.C,*%
X135237503Y-83992988D03*
%TD*%
D12*
%TO.C,REF\u002A\u002A*%
X255349561Y-140817033D03*
X256149561Y-140817033D03*
X256949561Y-140817033D03*
X257749561Y-140817033D03*
X258549561Y-140817033D03*
X259349561Y-140817033D03*
X260149561Y-140817033D03*
X260949561Y-140817033D03*
X261749561Y-140817033D03*
X262549561Y-140817033D03*
X263349561Y-140817033D03*
X264149561Y-140817033D03*
X264949561Y-140817033D03*
X265749561Y-140817033D03*
X266549561Y-140817033D03*
X267349561Y-140817033D03*
%TD*%
D11*
%TO.C,*%
X209974795Y-130494152D03*
%TD*%
D12*
%TO.C,REF\u002A\u002A*%
X28295529Y-68454023D03*
X28295529Y-69354023D03*
X28295529Y-70304023D03*
X28445529Y-67554023D03*
X28645529Y-66654023D03*
%TD*%
%TO.C,REF\u002A\u002A*%
X267349305Y-65270467D03*
X266549305Y-65270467D03*
X265749305Y-65270467D03*
X264949305Y-65270467D03*
X264149305Y-65270467D03*
X263349305Y-65270467D03*
X262549305Y-65270467D03*
X261749305Y-65270467D03*
X260949305Y-65270467D03*
X260149305Y-65270467D03*
X259349305Y-65270467D03*
X258549305Y-65270467D03*
X257749305Y-65270467D03*
X256949305Y-65270467D03*
X256149305Y-65270467D03*
X255349305Y-65270467D03*
%TD*%
%TO.C,REF\u002A\u002A*%
X269866969Y-70304024D03*
X269866969Y-69354024D03*
X269866969Y-68454024D03*
X269716969Y-67554024D03*
X269516969Y-66654024D03*
%TD*%
%TO.C,REF\u002A\u002A*%
X28295531Y-135783476D03*
X28295531Y-136733476D03*
X28295531Y-137633476D03*
X28445531Y-138533476D03*
X28645531Y-139433476D03*
%TD*%
%TO.C,REF\u002A\u002A*%
X30813195Y-140817033D03*
X31613195Y-140817033D03*
X32413195Y-140817033D03*
X33213195Y-140817033D03*
X34013195Y-140817033D03*
X34813195Y-140817033D03*
X35613195Y-140817033D03*
X36413195Y-140817033D03*
X37213195Y-140817033D03*
X38013195Y-140817033D03*
X38813195Y-140817033D03*
X39613195Y-140817033D03*
X40413195Y-140817033D03*
X41213195Y-140817033D03*
X42013195Y-140817033D03*
X42813195Y-140817033D03*
%TD*%
D10*
%TO.C,REF\u002A\u002A*%
X160669998Y-124225001D03*
X161939998Y-124225001D03*
X163209998Y-124225001D03*
%TD*%
M02*
