M48
; DRILL file {KiCad 7.0.1} date Mon Jul 24 13:20:32 2023
; FORMAT={-:-/ absolute / inch / decimal}
; #@! TF.CreationDate,2023-07-24T13:20:32-05:00
; #@! TF.GenerationSoftware,Kicad,Pcbnew,7.0.1
; #@! TF.FileFunction,NonPlated,1,2,NPTH
FMAT,2
INCH
; #@! TA.AperFunction,NonPlated,NPTH,ComponentDrill
T1C0.0197
; #@! TA.AperFunction,NonPlated,NPTH,ComponentDrill
T2C0.0295
; #@! TA.AperFunction,NonPlated,NPTH,ComponentDrill
T3C0.0984
; #@! TA.AperFunction,NonPlated,NPTH,ComponentDrill
T4C0.2165
%
G90
G05
T1
X1.114Y-2.695
X1.114Y-2.7305
X1.114Y-2.7679
X1.114Y-5.3458
X1.114Y-5.3832
X1.114Y-5.4186
X1.1199Y-2.6596
X1.1199Y-5.4541
X1.1278Y-2.6242
X1.1278Y-5.4895
X1.2131Y-2.5658
X1.2131Y-5.544
X1.2446Y-2.5658
X1.2446Y-5.544
X1.2761Y-2.5658
X1.2761Y-5.544
X1.3076Y-2.5658
X1.3076Y-5.544
X1.3391Y-2.5658
X1.3391Y-5.544
X1.3706Y-2.5658
X1.3706Y-5.544
X1.4021Y-2.5658
X1.4021Y-5.544
X1.4336Y-2.5658
X1.4336Y-5.544
X1.4651Y-2.5658
X1.4651Y-5.544
X1.4966Y-2.5658
X1.4966Y-5.544
X1.5281Y-2.5658
X1.5281Y-5.544
X1.5596Y-2.5658
X1.5596Y-5.544
X1.5911Y-2.5658
X1.5911Y-5.544
X1.6226Y-2.5658
X1.6226Y-5.544
X1.6541Y-2.5658
X1.6541Y-5.544
X1.6855Y-2.5658
X1.6856Y-5.544
X10.0531Y-2.5697
X10.0531Y-5.544
X10.0846Y-2.5697
X10.0846Y-5.544
X10.1161Y-2.5697
X10.1161Y-5.544
X10.1476Y-2.5697
X10.1476Y-5.544
X10.1791Y-2.5697
X10.1791Y-5.544
X10.2106Y-2.5697
X10.2106Y-5.544
X10.2421Y-2.5697
X10.2421Y-5.544
X10.2736Y-2.5697
X10.2736Y-5.544
X10.3051Y-2.5697
X10.3051Y-5.544
X10.3366Y-2.5697
X10.3366Y-5.544
X10.3681Y-2.5697
X10.3681Y-5.544
X10.3996Y-2.5697
X10.3996Y-5.544
X10.4311Y-2.5697
X10.4311Y-5.544
X10.4626Y-2.5697
X10.4626Y-5.544
X10.4941Y-2.5697
X10.4941Y-5.544
X10.5256Y-2.5697
X10.5256Y-5.544
X10.6109Y-2.6242
X10.6109Y-5.4895
X10.6188Y-2.6596
X10.6188Y-5.4541
X10.6247Y-2.695
X10.6247Y-2.7305
X10.6247Y-2.7679
X10.6247Y-5.3458
X10.6247Y-5.3832
X10.6247Y-5.4186
T2
X1.9506Y-4.8907
X2.0006Y-4.8907
X2.0506Y-4.8907
X2.2818Y-4.8907
X2.3318Y-4.8907
X2.3818Y-4.8907
X5.1256Y-4.8907
X5.1756Y-4.8907
X5.2256Y-4.8907
X6.3256Y-4.8907
X6.3756Y-4.8907
X6.4256Y-4.8907
X9.0756Y-4.8907
X9.1256Y-4.8907
X9.1756Y-4.8907
X9.2256Y-4.8907
X9.8256Y-4.8907
X9.8756Y-4.8907
X9.9256Y-4.8907
X9.9756Y-4.8907
T3
X1.5015Y-2.4289
X1.5015Y-5.6848
X1.5015Y-5.6848
X10.2372Y-2.4289
X10.2372Y-5.6848
X10.2372Y-5.6848
T4
X2.2633Y-4.675
X2.3243Y-3.3068
X4.1097Y-5.1297
X5.3243Y-3.3068
X6.5246Y-4.0588
X8.2667Y-5.1376
T0
M30
