%TF.GenerationSoftware,KiCad,Pcbnew,7.0.1*%
%TF.CreationDate,2023-07-24T13:20:30-05:00*%
%TF.ProjectId,Asymptote_Campitrayhulliander_Plate,4173796d-7074-46f7-9465-5f43616d7069,rev?*%
%TF.SameCoordinates,Original*%
%TF.FileFunction,Profile,NP*%
%FSLAX46Y46*%
G04 Gerber Fmt 4.6, Leading zero omitted, Abs format (unit mm)*
G04 Created by KiCad (PCBNEW 7.0.1) date 2023-07-24 13:20:30*
%MOMM*%
%LPD*%
G01*
G04 APERTURE LIST*
%TA.AperFunction,Profile*%
%ADD10C,0.200000*%
%TD*%
%TA.AperFunction,Profile*%
%ADD11C,0.100000*%
%TD*%
G04 APERTURE END LIST*
D10*
X30461201Y-141618750D02*
X32770602Y-145618750D01*
X30461217Y-141618741D02*
G75*
G03*
X28729150Y-140618750I-1732017J-999959D01*
G01*
X28162500Y-71793752D02*
X28162500Y-134293751D01*
X206375000Y-86518750D02*
X220375000Y-86518750D01*
X63212500Y-67468750D02*
X49212500Y-67468750D01*
X69269250Y-124618750D02*
X75118750Y-124618750D01*
X177800000Y-119568750D02*
X177800000Y-105568750D01*
X159724999Y-123618750D02*
X159724999Y-124618750D01*
X106075001Y-86518750D02*
X106075001Y-100518750D01*
X196562500Y-81468751D02*
X182562500Y-81468751D01*
X111124999Y-100518750D02*
X111124999Y-86518750D01*
X248949999Y-124618750D02*
X248949999Y-136381251D01*
X95574999Y-124618750D02*
X95574999Y-123618750D01*
X23670046Y-69730155D02*
G75*
G03*
X25312498Y-70293751I1642454J2111455D01*
G01*
X274282463Y-137242510D02*
G75*
G03*
X274492446Y-136357356I-97063J490510D01*
G01*
X87312500Y-67468749D02*
X101312500Y-67468749D01*
X108456250Y-138618750D02*
X94456250Y-138618750D01*
D11*
X129237502Y-131618751D02*
X129237502Y-124618750D01*
D10*
X219399998Y-124618750D02*
X219400000Y-123618751D01*
X272849999Y-141143761D02*
G75*
G03*
X274492446Y-140580148I1J2674961D01*
G01*
X200349999Y-138618751D02*
X200349999Y-123618750D01*
X253278650Y-65468731D02*
G75*
G03*
X255010700Y-64468750I50J1999931D01*
G01*
X200349999Y-123618750D02*
X207349999Y-123618750D01*
X234662500Y-81468751D02*
X220662499Y-81468751D01*
X38386375Y-145618750D02*
X40842398Y-145618750D01*
X271500001Y-70293750D02*
X272849999Y-70293750D01*
X197825000Y-123618751D02*
X197825000Y-124618750D01*
X264499999Y-124618750D02*
X268000000Y-124618750D01*
X257500000Y-124618749D02*
X257500000Y-123618751D01*
X75118750Y-124618750D02*
X75118750Y-138618751D01*
X38393250Y-124618750D02*
X38393250Y-123618750D01*
X82262500Y-67468749D02*
X82262499Y-81468750D01*
X120649999Y-119568750D02*
X120649999Y-105568750D01*
D11*
X139700000Y-126856251D02*
X133675000Y-126856251D01*
D10*
X248949999Y-124618750D02*
X234949998Y-124618750D01*
X234949999Y-119568750D02*
X234950000Y-105568751D01*
X249237500Y-86518751D02*
X263237498Y-86518750D01*
D11*
X27544313Y-65830684D02*
G75*
G03*
X28729148Y-65468749I511847J444724D01*
G01*
D10*
X253999999Y-138618751D02*
X229900000Y-138618750D01*
X274282481Y-66392602D02*
G75*
G03*
X274282462Y-68844994I242519J-1226198D01*
G01*
X177512500Y-67468750D02*
X177512500Y-81468750D01*
D11*
X38386375Y-145618750D02*
X37888881Y-145618750D01*
D10*
X86050000Y-123618750D02*
X93050000Y-123618751D01*
D11*
X270618150Y-140256845D02*
G75*
G03*
X269433351Y-140618750I-511850J-444655D01*
G01*
D10*
X23880042Y-68845028D02*
G75*
G03*
X23670052Y-69730148I96958J-490472D01*
G01*
D11*
X48925003Y-138618751D02*
X61118748Y-138618751D01*
D10*
X44883850Y-140618769D02*
G75*
G03*
X43151800Y-141618750I-50J-1999931D01*
G01*
X106362500Y-81468751D02*
X106362500Y-67468750D01*
X144462500Y-81468750D02*
X144462500Y-67468750D01*
X43151799Y-64468750D02*
X40842398Y-60468750D01*
X259776125Y-60468750D02*
X257320102Y-60468750D01*
X274282481Y-137242601D02*
G75*
G03*
X274282462Y-139694995I242519J-1226199D01*
G01*
X111124999Y-138618750D02*
X111124999Y-124618750D01*
X32770602Y-60468750D02*
X30461201Y-64468750D01*
X139412499Y-67468750D02*
X125412499Y-67468750D01*
X26662499Y-135793750D02*
X25312498Y-135793750D01*
X263237498Y-86518750D02*
X263237498Y-100518750D01*
D11*
X164162498Y-138618752D02*
X129237502Y-138618752D01*
D10*
X215899999Y-138618750D02*
X215899999Y-124618750D01*
X257500000Y-124618749D02*
X254000000Y-124618751D01*
X274492452Y-65507347D02*
G75*
G03*
X272849999Y-64943752I-1642452J-2111453D01*
G01*
X184943748Y-124618750D02*
X190825000Y-124618750D01*
X38393250Y-123618750D02*
X45393250Y-123618751D01*
X260856250Y-67468750D02*
X260856250Y-81468750D01*
X106362500Y-67468750D02*
X120362500Y-67468750D01*
X34925000Y-138618751D02*
X34925001Y-124618750D01*
X37306250Y-105568751D02*
X51306250Y-105568751D01*
X68262500Y-67468749D02*
X82262500Y-67468749D01*
X32770602Y-145618750D02*
X37888881Y-145618750D01*
X37306250Y-119568751D02*
X37306250Y-105568751D01*
D11*
X153700000Y-136381251D02*
X159724999Y-136381251D01*
D10*
X246856250Y-81468750D02*
X246856250Y-67468750D01*
X92075000Y-100518750D02*
X92075000Y-86518750D01*
X133675000Y-124618750D02*
X133675000Y-123618751D01*
X226400000Y-124618749D02*
X229900000Y-124618750D01*
X120362500Y-67468750D02*
X120362500Y-81468751D01*
X229900000Y-119568750D02*
X215899999Y-119568750D01*
X63212500Y-81468750D02*
X63212500Y-67468750D01*
X268000000Y-124618750D02*
X268000000Y-138618751D01*
X229900000Y-105568750D02*
X229900000Y-119568750D01*
X129237502Y-138618752D02*
X111124999Y-138618750D01*
X53975000Y-86518750D02*
X53975000Y-100518750D01*
X23670058Y-140580137D02*
G75*
G03*
X25312499Y-141143750I1642442J2111337D01*
G01*
X234950000Y-105568751D02*
X248949999Y-105568750D01*
X149225000Y-86518751D02*
X163224998Y-86518750D01*
X111124999Y-86518750D02*
X125125000Y-86518750D01*
D11*
X272849999Y-64943751D02*
G75*
G03*
X270618189Y-65830692I-87499J-3031249D01*
G01*
D10*
X191800000Y-119568750D02*
X177800000Y-119568750D01*
X40842398Y-145618750D02*
X43151799Y-141618750D01*
X254000000Y-105568751D02*
X268000000Y-105568751D01*
X207349999Y-123618750D02*
X207350000Y-138618751D01*
D11*
X129237502Y-136381251D02*
X129237502Y-131618751D01*
D10*
X23670055Y-136357359D02*
G75*
G03*
X23880036Y-137242506I307045J-394641D01*
G01*
X158750000Y-105568751D02*
X158750000Y-119568751D01*
X139700000Y-136381251D02*
X139700000Y-126856251D01*
D11*
X57006252Y-136381251D02*
X61118748Y-136381251D01*
D10*
X168274999Y-100518750D02*
X168274999Y-86518750D01*
X23670056Y-65507361D02*
G75*
G03*
X23880036Y-66392504I307044J-394639D01*
G01*
X164162502Y-124618750D02*
X182275000Y-124618750D01*
X201325000Y-100518749D02*
X187325001Y-100518750D01*
X201325000Y-86518751D02*
X201325000Y-100518749D01*
X177800000Y-105568750D02*
X191800000Y-105568750D01*
X158462500Y-81468750D02*
X144462500Y-81468750D01*
X134649999Y-119568750D02*
X120649999Y-119568750D01*
X201612500Y-67468750D02*
X215612500Y-67468750D01*
D11*
X164162502Y-136381251D02*
X159724999Y-136381251D01*
D10*
X102575000Y-123618751D02*
X102574999Y-124618750D01*
X254000000Y-136381251D02*
X254000000Y-124618751D01*
D11*
X229900000Y-136381251D02*
X234949999Y-136381251D01*
D10*
X210850000Y-105568750D02*
X210850000Y-119568750D01*
X215612500Y-81468751D02*
X201612500Y-81468751D01*
X28162549Y-71793752D02*
G75*
G03*
X26662499Y-70293751I-1500049J-48D01*
G01*
X152725000Y-123618751D02*
X159724999Y-123618750D01*
X149225000Y-100518750D02*
X149225000Y-86518751D01*
X215899999Y-124618750D02*
X219399998Y-124618750D01*
X196562500Y-67468749D02*
X196562500Y-81468751D01*
D11*
X53037502Y-124618750D02*
X57006252Y-124618750D01*
D10*
X26662499Y-135793750D02*
G75*
G03*
X28162500Y-134293751I1J1500000D01*
G01*
X215899999Y-119568750D02*
X215899999Y-105568750D01*
X152725000Y-124618749D02*
X152725000Y-123618751D01*
X44883850Y-140618750D02*
X253278650Y-140618750D01*
X69269250Y-123618750D02*
X69269250Y-124618750D01*
X44162500Y-81468750D02*
X30162500Y-81468750D01*
D11*
X269433298Y-65468756D02*
G75*
G03*
X270618190Y-65830690I673002J82756D01*
G01*
D10*
X187325001Y-86518750D02*
X201325000Y-86518751D01*
X140675000Y-123618750D02*
X140675000Y-124618750D01*
X265391898Y-60468750D02*
X260273619Y-60468750D01*
X220375000Y-86518750D02*
X220375000Y-100518750D01*
X153700000Y-105568751D02*
X153700000Y-119568751D01*
X61118748Y-124618750D02*
X61118748Y-136381251D01*
X267701283Y-64468759D02*
G75*
G03*
X269433350Y-65468750I1732017J999959D01*
G01*
X269999950Y-134293750D02*
G75*
G03*
X271500000Y-135793750I1500050J50D01*
G01*
X182562500Y-67468749D02*
X196562500Y-67468749D01*
X96550000Y-105568750D02*
X96550000Y-119568750D01*
X28729150Y-65468731D02*
G75*
G03*
X30461200Y-64468750I50J1999931D01*
G01*
X270000000Y-134293750D02*
X270000000Y-71793750D01*
X274492443Y-69730140D02*
G75*
G03*
X274282462Y-68844995I-307043J394640D01*
G01*
X190825000Y-124618750D02*
X190825000Y-123618750D01*
D11*
X37888625Y-60468750D02*
X38386119Y-60468750D01*
D10*
X25312498Y-64943762D02*
G75*
G03*
X23670052Y-65507356I2J-2675038D01*
G01*
X101312500Y-67468749D02*
X101312500Y-81468751D01*
X46543749Y-86518750D02*
X46543749Y-100518750D01*
X34925001Y-124618750D02*
X38393250Y-124618750D01*
X158750000Y-119568751D02*
X172750000Y-119568751D01*
X198943749Y-124618750D02*
X198943749Y-138618751D01*
X182275000Y-138618751D02*
X164162498Y-138618752D01*
X225424999Y-100518750D02*
X225424999Y-86518750D01*
X73025000Y-86518751D02*
X87024999Y-86518750D01*
X48925003Y-138618751D02*
X34925000Y-138618751D01*
X73025000Y-100518749D02*
X73025000Y-86518751D01*
X63500000Y-119568750D02*
X63499999Y-105568751D01*
X144174999Y-100518750D02*
X144174999Y-86518750D01*
X153700000Y-119568751D02*
X139700000Y-119568751D01*
X51306250Y-119568751D02*
X37306250Y-119568751D01*
X206375000Y-100518750D02*
X206375000Y-86518750D01*
X37888625Y-60468750D02*
X32770602Y-60468750D01*
X255010717Y-141618741D02*
G75*
G03*
X253278650Y-140618750I-1732017J-999959D01*
G01*
X220662499Y-67468750D02*
X234662500Y-67468750D01*
X163512499Y-81468750D02*
X163512500Y-67468749D01*
D11*
X260273875Y-145618750D02*
X259776381Y-145618750D01*
D10*
X43151783Y-64468759D02*
G75*
G03*
X44883850Y-65468750I1732017J999959D01*
G01*
X82550000Y-105568750D02*
X96550000Y-105568750D01*
X265391898Y-145618750D02*
X267701299Y-141618750D01*
X219400000Y-123618751D02*
X226400000Y-123618751D01*
X239424999Y-86518750D02*
X239424999Y-100518750D01*
X274492440Y-140580141D02*
G75*
G03*
X274282462Y-139694996I-307040J394641D01*
G01*
X87312500Y-81468751D02*
X87312500Y-67468749D01*
X249237498Y-100518750D02*
X249237500Y-86518751D01*
X32543748Y-86518750D02*
X46543749Y-86518750D01*
D11*
X28729202Y-140618744D02*
G75*
G03*
X27544310Y-140256810I-673002J-82756D01*
G01*
D10*
X77500000Y-105568751D02*
X77500000Y-119568751D01*
X23880036Y-139694993D02*
G75*
G03*
X23880036Y-137242507I-242536J1226243D01*
G01*
X197825000Y-124618750D02*
X198943749Y-124618750D01*
X234949999Y-136381251D02*
X234950000Y-124618751D01*
X257320102Y-60468750D02*
X255010701Y-64468750D01*
D11*
X164162498Y-124618750D02*
X164162498Y-131618751D01*
D10*
X272849999Y-70293760D02*
G75*
G03*
X274492447Y-69730146I1J2674960D01*
G01*
X246856250Y-67468750D02*
X260856250Y-67468750D01*
X163512500Y-67468749D02*
X177512500Y-67468750D01*
X45393250Y-123618751D02*
X45393250Y-124618750D01*
X125125000Y-86518750D02*
X125125000Y-100518750D01*
X133675000Y-123618751D02*
X140675000Y-123618750D01*
X130174999Y-100518750D02*
X144174999Y-100518750D01*
X144174999Y-86518750D02*
X130174999Y-86518750D01*
X269433350Y-140618769D02*
G75*
G03*
X267701300Y-141618750I-50J-1999931D01*
G01*
X96550000Y-119568750D02*
X82550000Y-119568750D01*
X30162500Y-81468750D02*
X30162499Y-67468750D01*
X144462500Y-67468750D02*
X158462500Y-67468750D01*
X125412499Y-81468751D02*
X139412499Y-81468751D01*
X182562500Y-81468751D02*
X182562500Y-67468749D01*
X106075001Y-100518750D02*
X92075000Y-100518750D01*
X267701299Y-64468750D02*
X265391898Y-60468750D01*
X215899999Y-105568750D02*
X229900000Y-105568750D01*
X187325001Y-100518750D02*
X187325001Y-86518750D01*
X48925003Y-124618750D02*
X48925003Y-136381251D01*
X272849999Y-135793750D02*
X271500000Y-135793750D01*
X102574999Y-124618750D02*
X108456250Y-124618750D01*
D11*
X57006252Y-136381251D02*
X57006252Y-124618750D01*
D10*
X115600000Y-105568750D02*
X115600000Y-119568750D01*
D11*
X164162498Y-131618751D02*
X164162502Y-136381251D01*
D10*
X93050000Y-123618751D02*
X93050000Y-138618750D01*
X172750000Y-119568751D02*
X172750000Y-105568751D01*
D11*
X133675001Y-136381251D02*
X139700000Y-136381251D01*
D10*
X51306250Y-105568751D02*
X51306250Y-119568751D01*
X23880043Y-139695029D02*
G75*
G03*
X23670051Y-140580146I96957J-490471D01*
G01*
X201612500Y-81468751D02*
X201612500Y-67468750D01*
X32543748Y-100518750D02*
X32543748Y-86518750D01*
D11*
X53037502Y-124618750D02*
X53037502Y-136381251D01*
D10*
X182275000Y-100518750D02*
X168274999Y-100518750D01*
X163224998Y-100518750D02*
X149225000Y-100518750D01*
X253278650Y-65468750D02*
X44883850Y-65468750D01*
X182275000Y-124618750D02*
X182275000Y-138618751D01*
X53975000Y-100518750D02*
X67975000Y-100518750D01*
X248949999Y-119568750D02*
X234949999Y-119568750D01*
X120649999Y-105568750D02*
X134649999Y-105568750D01*
X62269250Y-124618750D02*
X61118748Y-124618750D01*
X177512500Y-81468750D02*
X163512499Y-81468750D01*
X125412499Y-67468750D02*
X125412499Y-81468751D01*
X215612500Y-67468750D02*
X215612500Y-81468751D01*
X101600000Y-105568750D02*
X115600000Y-105568750D01*
X229900000Y-124618750D02*
X229900000Y-136381251D01*
X168274999Y-86518750D02*
X182275000Y-86518750D01*
X210850000Y-119568750D02*
X196850000Y-119568750D01*
X263237498Y-100518750D02*
X249237498Y-100518750D01*
X184943750Y-138618750D02*
X184943748Y-124618750D01*
X134649999Y-105568750D02*
X134649999Y-119568750D01*
X139700000Y-105568751D02*
X153700000Y-105568751D01*
X45393250Y-124618750D02*
X48925003Y-124618750D01*
X260856250Y-81468750D02*
X246856250Y-81468750D01*
X25312498Y-135793739D02*
G75*
G03*
X23670051Y-136357355I2J-2674961D01*
G01*
X234662500Y-67468750D02*
X234662500Y-81468751D01*
X30162499Y-67468750D02*
X44162499Y-67468750D01*
X139700000Y-119568751D02*
X139700000Y-105568751D01*
X87024999Y-100518750D02*
X73025000Y-100518749D01*
X163224998Y-86518750D02*
X163224998Y-100518750D01*
X229900000Y-138618750D02*
X215899999Y-138618750D01*
X23880036Y-68844995D02*
G75*
G03*
X23880036Y-66392505I-242536J1226245D01*
G01*
X190825000Y-123618750D02*
X197825000Y-123618751D01*
X49212500Y-81468750D02*
X63212500Y-81468750D01*
X239424999Y-100518750D02*
X225424999Y-100518750D01*
D11*
X48925003Y-136381251D02*
X53037502Y-136381251D01*
D10*
X115600000Y-119568750D02*
X101600000Y-119568750D01*
X255010701Y-141618750D02*
X257320102Y-145618750D01*
X46543749Y-100518750D02*
X32543748Y-100518750D01*
X220375000Y-100518750D02*
X206375000Y-100518750D01*
X139412499Y-81468751D02*
X139412499Y-67468750D01*
X67975000Y-86518750D02*
X53975000Y-86518750D01*
X257500000Y-123618751D02*
X264499999Y-123618750D01*
D11*
X270618189Y-140256811D02*
G75*
G03*
X272849999Y-141143750I2144311J2144311D01*
G01*
D10*
X274492441Y-136357363D02*
G75*
G03*
X272849999Y-135793750I-1642441J-2111337D01*
G01*
X191800000Y-105568750D02*
X191800000Y-119568750D01*
X268000000Y-105568751D02*
X268000000Y-119568751D01*
D11*
X159724999Y-126856251D02*
X159724999Y-124618750D01*
D10*
X198943749Y-138618751D02*
X184943750Y-138618750D01*
X264499999Y-123618750D02*
X264499999Y-124618750D01*
X268000000Y-119568751D02*
X254000000Y-119568751D01*
X182275000Y-86518750D02*
X182275000Y-100518750D01*
X82262499Y-81468750D02*
X68262500Y-81468751D01*
X125125000Y-100518750D02*
X111124999Y-100518750D01*
X94456250Y-124618750D02*
X95574999Y-124618750D01*
X49212500Y-67468750D02*
X49212500Y-81468750D01*
D11*
X248949999Y-136381251D02*
X254000000Y-136381251D01*
D10*
X93050000Y-138618750D02*
X86050000Y-138618751D01*
D11*
X133675001Y-136381251D02*
X129237502Y-136381251D01*
X25312499Y-141143749D02*
G75*
G03*
X27544310Y-140256810I87501J3031249D01*
G01*
D10*
X101600000Y-119568750D02*
X101600000Y-105568750D01*
X92075000Y-86518750D02*
X106075001Y-86518750D01*
X63499999Y-105568751D02*
X77500000Y-105568751D01*
X120362500Y-81468751D02*
X106362500Y-81468751D01*
D11*
X159724999Y-126856251D02*
X153700000Y-126856251D01*
D10*
X220662499Y-81468751D02*
X220662499Y-67468750D01*
X207350000Y-138618751D02*
X200349999Y-138618751D01*
X153700000Y-126856251D02*
X153700000Y-136381251D01*
X67975000Y-100518750D02*
X67975000Y-86518750D01*
X226400000Y-123618751D02*
X226400000Y-124618749D01*
X158462500Y-67468750D02*
X158462500Y-81468750D01*
X257320102Y-145618750D02*
X259776381Y-145618750D01*
X82550000Y-119568750D02*
X82550000Y-105568750D01*
X108456250Y-124618750D02*
X108456250Y-138618750D01*
X196850000Y-105568750D02*
X210850000Y-105568750D01*
X254000000Y-119568751D02*
X254000000Y-105568751D01*
X140675000Y-124618750D02*
X152725000Y-124618749D01*
X130174999Y-86518750D02*
X130174999Y-100518750D01*
X268000000Y-138618751D02*
X253999999Y-138618751D01*
X271500001Y-70293800D02*
G75*
G03*
X270000000Y-71793750I-1J-1500000D01*
G01*
D11*
X133675000Y-124618750D02*
X133675000Y-126856251D01*
D10*
X225424999Y-86518750D02*
X239424999Y-86518750D01*
X68262500Y-81468751D02*
X68262500Y-67468749D01*
X25312498Y-70293751D02*
X26662499Y-70293751D01*
X95574999Y-123618750D02*
X102575000Y-123618751D01*
X61118748Y-138618751D02*
X75118750Y-138618751D01*
X248949999Y-105568750D02*
X248949999Y-119568750D01*
X172750000Y-105568751D02*
X158750000Y-105568751D01*
X94456250Y-138618750D02*
X94456250Y-124618750D01*
D11*
X27544308Y-65830689D02*
G75*
G03*
X25312498Y-64943751I-2144308J-2144311D01*
G01*
D10*
X86050000Y-138618751D02*
X86050000Y-123618750D01*
X62269250Y-124618750D02*
X62269250Y-123618751D01*
X62269250Y-123618751D02*
X69269250Y-123618750D01*
X274282463Y-66392510D02*
G75*
G03*
X274492445Y-65507356I-97063J490510D01*
G01*
X87024999Y-86518750D02*
X87024999Y-100518750D01*
X40842398Y-60468750D02*
X38386119Y-60468750D01*
X77500000Y-119568751D02*
X63500000Y-119568750D01*
X44162499Y-67468750D02*
X44162500Y-81468750D01*
X196850000Y-119568750D02*
X196850000Y-105568750D01*
X260273875Y-145618750D02*
X265391898Y-145618750D01*
D11*
X259776125Y-60468750D02*
X260273619Y-60468750D01*
D10*
X111124999Y-124618750D02*
X129237502Y-124618750D01*
X101312500Y-81468751D02*
X87312500Y-81468751D01*
M02*
