%TF.GenerationSoftware,KiCad,Pcbnew,7.0.1*%
%TF.CreationDate,2023-07-24T13:20:30-05:00*%
%TF.ProjectId,Asymptote_Campitrayhulliander_Plate,4173796d-7074-46f7-9465-5f43616d7069,rev?*%
%TF.SameCoordinates,Original*%
%TF.FileFunction,Copper,L2,Bot*%
%TF.FilePolarity,Positive*%
%FSLAX46Y46*%
G04 Gerber Fmt 4.6, Leading zero omitted, Abs format (unit mm)*
G04 Created by KiCad (PCBNEW 7.0.1) date 2023-07-24 13:20:30*
%MOMM*%
%LPD*%
G01*
G04 APERTURE LIST*
G04 APERTURE END LIST*
%TA.AperFunction,NonConductor*%
G36*
X30433097Y-141149934D02*
G01*
X30539820Y-141242409D01*
X30670737Y-141302198D01*
X30777396Y-141317533D01*
X30848994Y-141317533D01*
X30955652Y-141302198D01*
X30967257Y-141296898D01*
X31086568Y-141242410D01*
X31131992Y-141203049D01*
X31183961Y-141176257D01*
X31242429Y-141176257D01*
X31294397Y-141203049D01*
X31296505Y-141204876D01*
X31339820Y-141242409D01*
X31470737Y-141302198D01*
X31577396Y-141317533D01*
X31648994Y-141317533D01*
X31755652Y-141302198D01*
X31767257Y-141296898D01*
X31886568Y-141242410D01*
X31931992Y-141203049D01*
X31983961Y-141176257D01*
X32042429Y-141176257D01*
X32094397Y-141203049D01*
X32096505Y-141204876D01*
X32139820Y-141242409D01*
X32270737Y-141302198D01*
X32377396Y-141317533D01*
X32448994Y-141317533D01*
X32555652Y-141302198D01*
X32567257Y-141296898D01*
X32686568Y-141242410D01*
X32731992Y-141203049D01*
X32783961Y-141176257D01*
X32842429Y-141176257D01*
X32894397Y-141203049D01*
X32896505Y-141204876D01*
X32939820Y-141242409D01*
X33070737Y-141302198D01*
X33177396Y-141317533D01*
X33248994Y-141317533D01*
X33355652Y-141302198D01*
X33367257Y-141296898D01*
X33486568Y-141242410D01*
X33531992Y-141203049D01*
X33583961Y-141176257D01*
X33642429Y-141176257D01*
X33694397Y-141203049D01*
X33696505Y-141204876D01*
X33739820Y-141242409D01*
X33870737Y-141302198D01*
X33977396Y-141317533D01*
X34048994Y-141317533D01*
X34155652Y-141302198D01*
X34167257Y-141296898D01*
X34286568Y-141242410D01*
X34331992Y-141203049D01*
X34383961Y-141176257D01*
X34442429Y-141176257D01*
X34494397Y-141203049D01*
X34496505Y-141204876D01*
X34539820Y-141242409D01*
X34670737Y-141302198D01*
X34777396Y-141317533D01*
X34848994Y-141317533D01*
X34955652Y-141302198D01*
X34967257Y-141296898D01*
X35086568Y-141242410D01*
X35131992Y-141203049D01*
X35183961Y-141176257D01*
X35242429Y-141176257D01*
X35294397Y-141203049D01*
X35296505Y-141204876D01*
X35339820Y-141242409D01*
X35470737Y-141302198D01*
X35577396Y-141317533D01*
X35648994Y-141317533D01*
X35755652Y-141302198D01*
X35767257Y-141296898D01*
X35886568Y-141242410D01*
X35931992Y-141203049D01*
X35983961Y-141176257D01*
X36042429Y-141176257D01*
X36094397Y-141203049D01*
X36096505Y-141204876D01*
X36139820Y-141242409D01*
X36270737Y-141302198D01*
X36377396Y-141317533D01*
X36448994Y-141317533D01*
X36555652Y-141302198D01*
X36567257Y-141296898D01*
X36686568Y-141242410D01*
X36731992Y-141203049D01*
X36783961Y-141176257D01*
X36842429Y-141176257D01*
X36894397Y-141203049D01*
X36896505Y-141204876D01*
X36939820Y-141242409D01*
X37070737Y-141302198D01*
X37177396Y-141317533D01*
X37248994Y-141317533D01*
X37355652Y-141302198D01*
X37367257Y-141296898D01*
X37486568Y-141242410D01*
X37531992Y-141203049D01*
X37583961Y-141176257D01*
X37642429Y-141176257D01*
X37694397Y-141203049D01*
X37696505Y-141204876D01*
X37739820Y-141242409D01*
X37870737Y-141302198D01*
X37977396Y-141317533D01*
X38048994Y-141317533D01*
X38155652Y-141302198D01*
X38167257Y-141296898D01*
X38286568Y-141242410D01*
X38331992Y-141203049D01*
X38383961Y-141176257D01*
X38442429Y-141176257D01*
X38494397Y-141203049D01*
X38496505Y-141204876D01*
X38539820Y-141242409D01*
X38670737Y-141302198D01*
X38777396Y-141317533D01*
X38848994Y-141317533D01*
X38955652Y-141302198D01*
X38967257Y-141296898D01*
X39086568Y-141242410D01*
X39131992Y-141203049D01*
X39183961Y-141176257D01*
X39242429Y-141176257D01*
X39294397Y-141203049D01*
X39296505Y-141204876D01*
X39339820Y-141242409D01*
X39470737Y-141302198D01*
X39577396Y-141317533D01*
X39648994Y-141317533D01*
X39755652Y-141302198D01*
X39767257Y-141296898D01*
X39886568Y-141242410D01*
X39931992Y-141203049D01*
X39983961Y-141176257D01*
X40042429Y-141176257D01*
X40094397Y-141203049D01*
X40096505Y-141204876D01*
X40139820Y-141242409D01*
X40270737Y-141302198D01*
X40377396Y-141317533D01*
X40448994Y-141317533D01*
X40555652Y-141302198D01*
X40567257Y-141296898D01*
X40686568Y-141242410D01*
X40731992Y-141203049D01*
X40783961Y-141176257D01*
X40842429Y-141176257D01*
X40894397Y-141203049D01*
X40896505Y-141204876D01*
X40939820Y-141242409D01*
X41070737Y-141302198D01*
X41177396Y-141317533D01*
X41248994Y-141317533D01*
X41355652Y-141302198D01*
X41367257Y-141296898D01*
X41486568Y-141242410D01*
X41531992Y-141203049D01*
X41583961Y-141176257D01*
X41642429Y-141176257D01*
X41694397Y-141203049D01*
X41696505Y-141204876D01*
X41739820Y-141242409D01*
X41870737Y-141302198D01*
X41977396Y-141317533D01*
X42048994Y-141317533D01*
X42155652Y-141302198D01*
X42167257Y-141296898D01*
X42286568Y-141242410D01*
X42331992Y-141203049D01*
X42383961Y-141176257D01*
X42442429Y-141176257D01*
X42494397Y-141203049D01*
X42496505Y-141204876D01*
X42539820Y-141242409D01*
X42670737Y-141302198D01*
X42777396Y-141317533D01*
X42848994Y-141317533D01*
X42955652Y-141302198D01*
X42967257Y-141296898D01*
X43086568Y-141242410D01*
X43130872Y-141204021D01*
X43153409Y-141184493D01*
X43207053Y-141157307D01*
X43267179Y-141158559D01*
X43319645Y-141187955D01*
X43352109Y-141238580D01*
X43356935Y-141298526D01*
X43332987Y-141353692D01*
X43216924Y-141504950D01*
X43153422Y-141614936D01*
X43153412Y-141614955D01*
X43151366Y-141618499D01*
X41073619Y-145217264D01*
X40877905Y-145556250D01*
X40832518Y-145601637D01*
X40770518Y-145618250D01*
X39339644Y-145618250D01*
X39273982Y-145599438D01*
X39228244Y-145548710D01*
X39216306Y-145481458D01*
X39241791Y-145418088D01*
X39398098Y-145217264D01*
X39398097Y-145217264D01*
X39398102Y-145217259D01*
X39516456Y-144998560D01*
X39597199Y-144763364D01*
X39638128Y-144518085D01*
X39638128Y-144269415D01*
X39597199Y-144024136D01*
X39516456Y-143788940D01*
X39398102Y-143570241D01*
X39398099Y-143570237D01*
X39398098Y-143570235D01*
X39245368Y-143374009D01*
X39245366Y-143374006D01*
X39062413Y-143205586D01*
X38854235Y-143069577D01*
X38854232Y-143069575D01*
X38729151Y-143014710D01*
X38626509Y-142969687D01*
X38385449Y-142908642D01*
X38385447Y-142908641D01*
X38385444Y-142908641D01*
X38199701Y-142893250D01*
X38199695Y-142893250D01*
X38075561Y-142893250D01*
X38075555Y-142893250D01*
X37889811Y-142908641D01*
X37889807Y-142908641D01*
X37889807Y-142908642D01*
X37648747Y-142969687D01*
X37648744Y-142969688D01*
X37648745Y-142969688D01*
X37421023Y-143069575D01*
X37282235Y-143160249D01*
X37212843Y-143205586D01*
X37212841Y-143205587D01*
X37212842Y-143205587D01*
X37029887Y-143374009D01*
X36877157Y-143570235D01*
X36758798Y-143788944D01*
X36678057Y-144024134D01*
X36678057Y-144024136D01*
X36637128Y-144269415D01*
X36637128Y-144518085D01*
X36678057Y-144763364D01*
X36758800Y-144998560D01*
X36877154Y-145217259D01*
X36877157Y-145217264D01*
X37033465Y-145418088D01*
X37058950Y-145481458D01*
X37047012Y-145548710D01*
X37001274Y-145599438D01*
X36935612Y-145618250D01*
X32842481Y-145618250D01*
X32780481Y-145601637D01*
X32735094Y-145556250D01*
X32652674Y-145413494D01*
X30488418Y-141664890D01*
X30488392Y-141664810D01*
X30461605Y-141618414D01*
X30396090Y-141504937D01*
X30253518Y-141319131D01*
X30229571Y-141263967D01*
X30234397Y-141204021D01*
X30266861Y-141153397D01*
X30319326Y-141124001D01*
X30379453Y-141122748D01*
X30433097Y-141149934D01*
G37*
%TD.AperFunction*%
%TA.AperFunction,NonConductor*%
G36*
X37001018Y-60488062D02*
G01*
X37046756Y-60538790D01*
X37058694Y-60606042D01*
X37033209Y-60669412D01*
X36876901Y-60870235D01*
X36758542Y-61088944D01*
X36677801Y-61324134D01*
X36677801Y-61324136D01*
X36636872Y-61569415D01*
X36636872Y-61818085D01*
X36677801Y-62063364D01*
X36758544Y-62298560D01*
X36876898Y-62517259D01*
X36876901Y-62517264D01*
X37012408Y-62691362D01*
X37029634Y-62713494D01*
X37212587Y-62881914D01*
X37420765Y-63017923D01*
X37648491Y-63117813D01*
X37889551Y-63178858D01*
X37963852Y-63185014D01*
X38075299Y-63194250D01*
X38075305Y-63194250D01*
X38199439Y-63194250D01*
X38199445Y-63194250D01*
X38300759Y-63185854D01*
X38385193Y-63178858D01*
X38626253Y-63117813D01*
X38853979Y-63017923D01*
X39062157Y-62881914D01*
X39245110Y-62713494D01*
X39397846Y-62517259D01*
X39516200Y-62298560D01*
X39596943Y-62063364D01*
X39637872Y-61818085D01*
X39637872Y-61569415D01*
X39596943Y-61324136D01*
X39516200Y-61088940D01*
X39397846Y-60870241D01*
X39397843Y-60870237D01*
X39397842Y-60870235D01*
X39241535Y-60669412D01*
X39216050Y-60606042D01*
X39227988Y-60538790D01*
X39273726Y-60488062D01*
X39339388Y-60469250D01*
X40770518Y-60469250D01*
X40832518Y-60485863D01*
X40877904Y-60531249D01*
X42235060Y-62881912D01*
X43125980Y-64425032D01*
X43126008Y-64425115D01*
X43197157Y-64548350D01*
X43213747Y-64607989D01*
X43199438Y-64668216D01*
X43157798Y-64714022D01*
X43099203Y-64733990D01*
X43038257Y-64723143D01*
X42955396Y-64685301D01*
X42848738Y-64669967D01*
X42777140Y-64669967D01*
X42670481Y-64685301D01*
X42539564Y-64745090D01*
X42494141Y-64784450D01*
X42442173Y-64811242D01*
X42383705Y-64811242D01*
X42331737Y-64784450D01*
X42286313Y-64745090D01*
X42155396Y-64685301D01*
X42048738Y-64669967D01*
X41977140Y-64669967D01*
X41870481Y-64685301D01*
X41739564Y-64745090D01*
X41694141Y-64784450D01*
X41642173Y-64811242D01*
X41583705Y-64811242D01*
X41531737Y-64784450D01*
X41486313Y-64745090D01*
X41355396Y-64685301D01*
X41248738Y-64669967D01*
X41177140Y-64669967D01*
X41070481Y-64685301D01*
X40939564Y-64745090D01*
X40894141Y-64784450D01*
X40842173Y-64811242D01*
X40783705Y-64811242D01*
X40731737Y-64784450D01*
X40686313Y-64745090D01*
X40555396Y-64685301D01*
X40448738Y-64669967D01*
X40377140Y-64669967D01*
X40270481Y-64685301D01*
X40139564Y-64745090D01*
X40094141Y-64784450D01*
X40042173Y-64811242D01*
X39983705Y-64811242D01*
X39931737Y-64784450D01*
X39886313Y-64745090D01*
X39755396Y-64685301D01*
X39648738Y-64669967D01*
X39577140Y-64669967D01*
X39470481Y-64685301D01*
X39339564Y-64745090D01*
X39294141Y-64784450D01*
X39242173Y-64811242D01*
X39183705Y-64811242D01*
X39131737Y-64784450D01*
X39086313Y-64745090D01*
X38955396Y-64685301D01*
X38848738Y-64669967D01*
X38777140Y-64669967D01*
X38670481Y-64685301D01*
X38539564Y-64745090D01*
X38494141Y-64784450D01*
X38442173Y-64811242D01*
X38383705Y-64811242D01*
X38331737Y-64784450D01*
X38286313Y-64745090D01*
X38155396Y-64685301D01*
X38048738Y-64669967D01*
X37977140Y-64669967D01*
X37870481Y-64685301D01*
X37739564Y-64745090D01*
X37694141Y-64784450D01*
X37642173Y-64811242D01*
X37583705Y-64811242D01*
X37531737Y-64784450D01*
X37486313Y-64745090D01*
X37355396Y-64685301D01*
X37248738Y-64669967D01*
X37177140Y-64669967D01*
X37070481Y-64685301D01*
X36939564Y-64745090D01*
X36894141Y-64784450D01*
X36842173Y-64811242D01*
X36783705Y-64811242D01*
X36731737Y-64784450D01*
X36686313Y-64745090D01*
X36555396Y-64685301D01*
X36448738Y-64669967D01*
X36377140Y-64669967D01*
X36270481Y-64685301D01*
X36139564Y-64745090D01*
X36094141Y-64784450D01*
X36042173Y-64811242D01*
X35983705Y-64811242D01*
X35931737Y-64784450D01*
X35886313Y-64745090D01*
X35755396Y-64685301D01*
X35648738Y-64669967D01*
X35577140Y-64669967D01*
X35470481Y-64685301D01*
X35339564Y-64745090D01*
X35294141Y-64784450D01*
X35242173Y-64811242D01*
X35183705Y-64811242D01*
X35131737Y-64784450D01*
X35086313Y-64745090D01*
X34955396Y-64685301D01*
X34848738Y-64669967D01*
X34777140Y-64669967D01*
X34670481Y-64685301D01*
X34539564Y-64745090D01*
X34494141Y-64784450D01*
X34442173Y-64811242D01*
X34383705Y-64811242D01*
X34331737Y-64784450D01*
X34286313Y-64745090D01*
X34155396Y-64685301D01*
X34048738Y-64669967D01*
X33977140Y-64669967D01*
X33870481Y-64685301D01*
X33739564Y-64745090D01*
X33694141Y-64784450D01*
X33642173Y-64811242D01*
X33583705Y-64811242D01*
X33531737Y-64784450D01*
X33486313Y-64745090D01*
X33355396Y-64685301D01*
X33248738Y-64669967D01*
X33177140Y-64669967D01*
X33070481Y-64685301D01*
X32939564Y-64745090D01*
X32894141Y-64784450D01*
X32842173Y-64811242D01*
X32783705Y-64811242D01*
X32731737Y-64784450D01*
X32686313Y-64745090D01*
X32555396Y-64685301D01*
X32448738Y-64669967D01*
X32377140Y-64669967D01*
X32270481Y-64685301D01*
X32139564Y-64745090D01*
X32094141Y-64784450D01*
X32042173Y-64811242D01*
X31983705Y-64811242D01*
X31931737Y-64784450D01*
X31886313Y-64745090D01*
X31755396Y-64685301D01*
X31648738Y-64669967D01*
X31577140Y-64669967D01*
X31470481Y-64685301D01*
X31339564Y-64745090D01*
X31294141Y-64784450D01*
X31242173Y-64811242D01*
X31183705Y-64811242D01*
X31131737Y-64784450D01*
X31086313Y-64745090D01*
X30955396Y-64685301D01*
X30848738Y-64669967D01*
X30777140Y-64669967D01*
X30670482Y-64685301D01*
X30570099Y-64731145D01*
X30509153Y-64741991D01*
X30450558Y-64722022D01*
X30408918Y-64676217D01*
X30394610Y-64615989D01*
X30411200Y-64556353D01*
X30461582Y-64469088D01*
X30461585Y-64469086D01*
X32735094Y-60531249D01*
X32780481Y-60485863D01*
X32842481Y-60469250D01*
X36935356Y-60469250D01*
X37001018Y-60488062D01*
G37*
%TD.AperFunction*%
%TA.AperFunction,NonConductor*%
G36*
X267842736Y-141124599D02*
G01*
X267895202Y-141153995D01*
X267927666Y-141204620D01*
X267932492Y-141264565D01*
X267908545Y-141319731D01*
X267766423Y-141504951D01*
X267702922Y-141614936D01*
X267702912Y-141614955D01*
X267700866Y-141618499D01*
X265623119Y-145217264D01*
X265427405Y-145556250D01*
X265382018Y-145601637D01*
X265320018Y-145618250D01*
X261227144Y-145618250D01*
X261161482Y-145599438D01*
X261115744Y-145548710D01*
X261103806Y-145481458D01*
X261129291Y-145418088D01*
X261285598Y-145217264D01*
X261285597Y-145217264D01*
X261285602Y-145217259D01*
X261403956Y-144998560D01*
X261484699Y-144763364D01*
X261525628Y-144518085D01*
X261525628Y-144269415D01*
X261484699Y-144024136D01*
X261403956Y-143788940D01*
X261285602Y-143570241D01*
X261285599Y-143570237D01*
X261285598Y-143570235D01*
X261132868Y-143374009D01*
X261132866Y-143374006D01*
X260949913Y-143205586D01*
X260741735Y-143069577D01*
X260741732Y-143069575D01*
X260616651Y-143014710D01*
X260514009Y-142969687D01*
X260272949Y-142908642D01*
X260272947Y-142908641D01*
X260272944Y-142908641D01*
X260087201Y-142893250D01*
X260087195Y-142893250D01*
X259963061Y-142893250D01*
X259963055Y-142893250D01*
X259777311Y-142908641D01*
X259777307Y-142908641D01*
X259777307Y-142908642D01*
X259536247Y-142969687D01*
X259536244Y-142969688D01*
X259536245Y-142969688D01*
X259308523Y-143069575D01*
X259169735Y-143160249D01*
X259100343Y-143205586D01*
X259100341Y-143205587D01*
X259100342Y-143205587D01*
X258917387Y-143374009D01*
X258764657Y-143570235D01*
X258646298Y-143788944D01*
X258565557Y-144024134D01*
X258565557Y-144024136D01*
X258524628Y-144269415D01*
X258524628Y-144518085D01*
X258565557Y-144763364D01*
X258646300Y-144998560D01*
X258764654Y-145217259D01*
X258764657Y-145217264D01*
X258920965Y-145418088D01*
X258946450Y-145481458D01*
X258934512Y-145548710D01*
X258888774Y-145599438D01*
X258823112Y-145618250D01*
X257391981Y-145618250D01*
X257329981Y-145601637D01*
X257284594Y-145556250D01*
X257202174Y-145413494D01*
X255037918Y-141664890D01*
X255037892Y-141664810D01*
X255011105Y-141618414D01*
X254945590Y-141504937D01*
X254829076Y-141353091D01*
X254805129Y-141297927D01*
X254809955Y-141237982D01*
X254842418Y-141187357D01*
X254894884Y-141157961D01*
X254955011Y-141156708D01*
X255008655Y-141183893D01*
X255076188Y-141242410D01*
X255207103Y-141302198D01*
X255313762Y-141317533D01*
X255385360Y-141317533D01*
X255492018Y-141302198D01*
X255503623Y-141296898D01*
X255622934Y-141242410D01*
X255668358Y-141203049D01*
X255720327Y-141176257D01*
X255778795Y-141176257D01*
X255830764Y-141203050D01*
X255876186Y-141242409D01*
X256007103Y-141302198D01*
X256113762Y-141317533D01*
X256185360Y-141317533D01*
X256292018Y-141302198D01*
X256303623Y-141296898D01*
X256422934Y-141242410D01*
X256468358Y-141203049D01*
X256520327Y-141176257D01*
X256578795Y-141176257D01*
X256630764Y-141203050D01*
X256676186Y-141242409D01*
X256807103Y-141302198D01*
X256913762Y-141317533D01*
X256985360Y-141317533D01*
X257092018Y-141302198D01*
X257103623Y-141296898D01*
X257222934Y-141242410D01*
X257268358Y-141203049D01*
X257320327Y-141176257D01*
X257378795Y-141176257D01*
X257430764Y-141203050D01*
X257476186Y-141242409D01*
X257607103Y-141302198D01*
X257713762Y-141317533D01*
X257785360Y-141317533D01*
X257892018Y-141302198D01*
X257903623Y-141296898D01*
X258022934Y-141242410D01*
X258068358Y-141203049D01*
X258120327Y-141176257D01*
X258178795Y-141176257D01*
X258230764Y-141203050D01*
X258276186Y-141242409D01*
X258407103Y-141302198D01*
X258513762Y-141317533D01*
X258585360Y-141317533D01*
X258692018Y-141302198D01*
X258703623Y-141296898D01*
X258822934Y-141242410D01*
X258868358Y-141203049D01*
X258920327Y-141176257D01*
X258978795Y-141176257D01*
X259030764Y-141203050D01*
X259076186Y-141242409D01*
X259207103Y-141302198D01*
X259313762Y-141317533D01*
X259385360Y-141317533D01*
X259492018Y-141302198D01*
X259503623Y-141296898D01*
X259622934Y-141242410D01*
X259668358Y-141203049D01*
X259720327Y-141176257D01*
X259778795Y-141176257D01*
X259830764Y-141203050D01*
X259876186Y-141242409D01*
X260007103Y-141302198D01*
X260113762Y-141317533D01*
X260185360Y-141317533D01*
X260292018Y-141302198D01*
X260303623Y-141296898D01*
X260422934Y-141242410D01*
X260468358Y-141203049D01*
X260520327Y-141176257D01*
X260578795Y-141176257D01*
X260630764Y-141203050D01*
X260676186Y-141242409D01*
X260807103Y-141302198D01*
X260913762Y-141317533D01*
X260985360Y-141317533D01*
X261092018Y-141302198D01*
X261103623Y-141296898D01*
X261222934Y-141242410D01*
X261268358Y-141203049D01*
X261320327Y-141176257D01*
X261378795Y-141176257D01*
X261430764Y-141203050D01*
X261476186Y-141242409D01*
X261607103Y-141302198D01*
X261713762Y-141317533D01*
X261785360Y-141317533D01*
X261892018Y-141302198D01*
X261903623Y-141296898D01*
X262022934Y-141242410D01*
X262068358Y-141203049D01*
X262120327Y-141176257D01*
X262178795Y-141176257D01*
X262230764Y-141203050D01*
X262276186Y-141242409D01*
X262407103Y-141302198D01*
X262513762Y-141317533D01*
X262585360Y-141317533D01*
X262692018Y-141302198D01*
X262703623Y-141296898D01*
X262822934Y-141242410D01*
X262868358Y-141203049D01*
X262920327Y-141176257D01*
X262978795Y-141176257D01*
X263030764Y-141203050D01*
X263076186Y-141242409D01*
X263207103Y-141302198D01*
X263313762Y-141317533D01*
X263385360Y-141317533D01*
X263492018Y-141302198D01*
X263503623Y-141296898D01*
X263622934Y-141242410D01*
X263668358Y-141203049D01*
X263720327Y-141176257D01*
X263778795Y-141176257D01*
X263830764Y-141203050D01*
X263876186Y-141242409D01*
X264007103Y-141302198D01*
X264113762Y-141317533D01*
X264185360Y-141317533D01*
X264292018Y-141302198D01*
X264303623Y-141296898D01*
X264422934Y-141242410D01*
X264468358Y-141203049D01*
X264520327Y-141176257D01*
X264578795Y-141176257D01*
X264630764Y-141203050D01*
X264676186Y-141242409D01*
X264807103Y-141302198D01*
X264913762Y-141317533D01*
X264985360Y-141317533D01*
X265092018Y-141302198D01*
X265103623Y-141296898D01*
X265222934Y-141242410D01*
X265268358Y-141203049D01*
X265320327Y-141176257D01*
X265378795Y-141176257D01*
X265430764Y-141203050D01*
X265476186Y-141242409D01*
X265607103Y-141302198D01*
X265713762Y-141317533D01*
X265785360Y-141317533D01*
X265892018Y-141302198D01*
X265903623Y-141296898D01*
X266022934Y-141242410D01*
X266068358Y-141203049D01*
X266120327Y-141176257D01*
X266178795Y-141176257D01*
X266230764Y-141203050D01*
X266276186Y-141242409D01*
X266407103Y-141302198D01*
X266513762Y-141317533D01*
X266585360Y-141317533D01*
X266692018Y-141302198D01*
X266703623Y-141296898D01*
X266822934Y-141242410D01*
X266868358Y-141203049D01*
X266920327Y-141176257D01*
X266978795Y-141176257D01*
X267030764Y-141203050D01*
X267076186Y-141242409D01*
X267207103Y-141302198D01*
X267313762Y-141317533D01*
X267385360Y-141317533D01*
X267492018Y-141302198D01*
X267503623Y-141296898D01*
X267622934Y-141242410D01*
X267728968Y-141150531D01*
X267782609Y-141123347D01*
X267842736Y-141124599D01*
G37*
%TD.AperFunction*%
%TA.AperFunction,NonConductor*%
G36*
X258888518Y-60488062D02*
G01*
X258934256Y-60538790D01*
X258946194Y-60606042D01*
X258920709Y-60669412D01*
X258764401Y-60870235D01*
X258646042Y-61088944D01*
X258565301Y-61324134D01*
X258565301Y-61324136D01*
X258524372Y-61569415D01*
X258524372Y-61818085D01*
X258565301Y-62063364D01*
X258646044Y-62298560D01*
X258764398Y-62517259D01*
X258764401Y-62517264D01*
X258899908Y-62691362D01*
X258917134Y-62713494D01*
X259100087Y-62881914D01*
X259308265Y-63017923D01*
X259535991Y-63117813D01*
X259777051Y-63178858D01*
X259851352Y-63185014D01*
X259962799Y-63194250D01*
X259962805Y-63194250D01*
X260086939Y-63194250D01*
X260086945Y-63194250D01*
X260188259Y-63185854D01*
X260272693Y-63178858D01*
X260513753Y-63117813D01*
X260741479Y-63017923D01*
X260949657Y-62881914D01*
X261132610Y-62713494D01*
X261285346Y-62517259D01*
X261403700Y-62298560D01*
X261484443Y-62063364D01*
X261525372Y-61818085D01*
X261525372Y-61569415D01*
X261484443Y-61324136D01*
X261403700Y-61088940D01*
X261285346Y-60870241D01*
X261285343Y-60870237D01*
X261285342Y-60870235D01*
X261129035Y-60669412D01*
X261103550Y-60606042D01*
X261115488Y-60538790D01*
X261161226Y-60488062D01*
X261226888Y-60469250D01*
X265320018Y-60469250D01*
X265382018Y-60485863D01*
X265427404Y-60531249D01*
X266784560Y-62881912D01*
X267675480Y-64425032D01*
X267675510Y-64425119D01*
X267766407Y-64582559D01*
X267908980Y-64768366D01*
X267932928Y-64823532D01*
X267928102Y-64883478D01*
X267895638Y-64934102D01*
X267843173Y-64963498D01*
X267783046Y-64964751D01*
X267729402Y-64937565D01*
X267622679Y-64845090D01*
X267491762Y-64785301D01*
X267385104Y-64769967D01*
X267313506Y-64769967D01*
X267206847Y-64785301D01*
X267075930Y-64845090D01*
X267030507Y-64884450D01*
X266978539Y-64911242D01*
X266920071Y-64911242D01*
X266868103Y-64884450D01*
X266822679Y-64845090D01*
X266691762Y-64785301D01*
X266585104Y-64769967D01*
X266513506Y-64769967D01*
X266406847Y-64785301D01*
X266275930Y-64845090D01*
X266230507Y-64884450D01*
X266178539Y-64911242D01*
X266120071Y-64911242D01*
X266068103Y-64884450D01*
X266022679Y-64845090D01*
X265891762Y-64785301D01*
X265785104Y-64769967D01*
X265713506Y-64769967D01*
X265606847Y-64785301D01*
X265475930Y-64845090D01*
X265430507Y-64884450D01*
X265378539Y-64911242D01*
X265320071Y-64911242D01*
X265268103Y-64884450D01*
X265222679Y-64845090D01*
X265091762Y-64785301D01*
X264985104Y-64769967D01*
X264913506Y-64769967D01*
X264806847Y-64785301D01*
X264675930Y-64845090D01*
X264630507Y-64884450D01*
X264578539Y-64911242D01*
X264520071Y-64911242D01*
X264468103Y-64884450D01*
X264422679Y-64845090D01*
X264291762Y-64785301D01*
X264185104Y-64769967D01*
X264113506Y-64769967D01*
X264006847Y-64785301D01*
X263875930Y-64845090D01*
X263830507Y-64884450D01*
X263778539Y-64911242D01*
X263720071Y-64911242D01*
X263668103Y-64884450D01*
X263622679Y-64845090D01*
X263491762Y-64785301D01*
X263385104Y-64769967D01*
X263313506Y-64769967D01*
X263206847Y-64785301D01*
X263075930Y-64845090D01*
X263030507Y-64884450D01*
X262978539Y-64911242D01*
X262920071Y-64911242D01*
X262868103Y-64884450D01*
X262822679Y-64845090D01*
X262691762Y-64785301D01*
X262585104Y-64769967D01*
X262513506Y-64769967D01*
X262406847Y-64785301D01*
X262275930Y-64845090D01*
X262230507Y-64884450D01*
X262178539Y-64911242D01*
X262120071Y-64911242D01*
X262068103Y-64884450D01*
X262022679Y-64845090D01*
X261891762Y-64785301D01*
X261785104Y-64769967D01*
X261713506Y-64769967D01*
X261606847Y-64785301D01*
X261475930Y-64845090D01*
X261430507Y-64884450D01*
X261378539Y-64911242D01*
X261320071Y-64911242D01*
X261268103Y-64884450D01*
X261222679Y-64845090D01*
X261091762Y-64785301D01*
X260985104Y-64769967D01*
X260913506Y-64769967D01*
X260806847Y-64785301D01*
X260675930Y-64845090D01*
X260630507Y-64884450D01*
X260578539Y-64911242D01*
X260520071Y-64911242D01*
X260468103Y-64884450D01*
X260422679Y-64845090D01*
X260291762Y-64785301D01*
X260185104Y-64769967D01*
X260113506Y-64769967D01*
X260006847Y-64785301D01*
X259875930Y-64845090D01*
X259830507Y-64884450D01*
X259778539Y-64911242D01*
X259720071Y-64911242D01*
X259668103Y-64884450D01*
X259622679Y-64845090D01*
X259491762Y-64785301D01*
X259385104Y-64769967D01*
X259313506Y-64769967D01*
X259206847Y-64785301D01*
X259075930Y-64845090D01*
X259030507Y-64884450D01*
X258978539Y-64911242D01*
X258920071Y-64911242D01*
X258868103Y-64884450D01*
X258822679Y-64845090D01*
X258691762Y-64785301D01*
X258585104Y-64769967D01*
X258513506Y-64769967D01*
X258406847Y-64785301D01*
X258275930Y-64845090D01*
X258230507Y-64884450D01*
X258178539Y-64911242D01*
X258120071Y-64911242D01*
X258068103Y-64884450D01*
X258022679Y-64845090D01*
X257891762Y-64785301D01*
X257785104Y-64769967D01*
X257713506Y-64769967D01*
X257606847Y-64785301D01*
X257475930Y-64845090D01*
X257430507Y-64884450D01*
X257378539Y-64911242D01*
X257320071Y-64911242D01*
X257268103Y-64884450D01*
X257222679Y-64845090D01*
X257091762Y-64785301D01*
X256985104Y-64769967D01*
X256913506Y-64769967D01*
X256806847Y-64785301D01*
X256675930Y-64845090D01*
X256630507Y-64884450D01*
X256578539Y-64911242D01*
X256520071Y-64911242D01*
X256468103Y-64884450D01*
X256422679Y-64845090D01*
X256291762Y-64785301D01*
X256185104Y-64769967D01*
X256113506Y-64769967D01*
X256006847Y-64785301D01*
X255875930Y-64845090D01*
X255830507Y-64884450D01*
X255778539Y-64911242D01*
X255720071Y-64911242D01*
X255668103Y-64884450D01*
X255622679Y-64845090D01*
X255491762Y-64785301D01*
X255385104Y-64769967D01*
X255313506Y-64769967D01*
X255206847Y-64785301D01*
X255075932Y-64845089D01*
X255009091Y-64903007D01*
X254955446Y-64930192D01*
X254895320Y-64928939D01*
X254842854Y-64899543D01*
X254810391Y-64848918D01*
X254805565Y-64788972D01*
X254829511Y-64733809D01*
X254945574Y-64582553D01*
X255011082Y-64469088D01*
X255011085Y-64469086D01*
X257284594Y-60531249D01*
X257329981Y-60485863D01*
X257391981Y-60469250D01*
X258822856Y-60469250D01*
X258888518Y-60488062D01*
G37*
%TD.AperFunction*%
M02*
